<?xml version="1.0" standalone="no"?>
<!DOCTYPE svg PUBLIC "-//W3C//DTD SVG 1.1//EN" "http://www.w3.org/Graphics/SVG/1.1/DTD/svg11.dtd" >
<svg xmlns="http://www.w3.org/2000/svg" xmlns:xlink="http://www.w3.org/1999/xlink" version="1.1">
<metadata>
Created by FontForge 20170924 at Thu Sep 15 20:11:20 2016
 By www-data
Created by Andy Teijelo with FontForge 2.0 (http://fontforge.sf.net)
</metadata>
<defs>
<font id="MSX-Screen0" horiz-adv-x="768" >
  <font-face 
    font-family="MSX Screen 0"
    font-weight="500"
    font-stretch="normal"
    units-per-em="1024"
    panose-1="2 0 6 9 0 0 0 0 0 0"
    ascent="896"
    descent="-128"
    x-height="640"
    cap-height="896"
    bbox="0 -128 768 896"
    underline-thickness="50"
    underline-position="-150"
    unicode-range="U+0020-29D7"
  />
<missing-glyph 
d="M34 0v682h272v-682h-272zM68 34h204v614h-204v-614z" />
    <glyph glyph-name=".notdef" 
d="M34 0v682h272v-682h-272zM68 34h204v614h-204v-614z" />
    <glyph glyph-name=".null" horiz-adv-x="0" 
 />
    <glyph glyph-name="nonmarkingreturn" 
 />
    <glyph glyph-name="space" unicode=" " 
 />
    <glyph glyph-name="exclam" unicode="!" 
d="M256 384v512h128v-512h-128zM256 64q0 48 8 56t56 8t56 -8t8 -56t-8 -56t-56 -8t-56 8t-8 56z" />
    <glyph glyph-name="quotedbl" unicode="&#x22;" 
d="M128 512v384h128v-384h-128zM384 512v384h128v-384h-128z" />
    <glyph glyph-name="numbersign" unicode="#" 
d="M128 640v256h128v-256h128v256h128v-256h64q48 0 56 -8t8 -56t-8 -56t-56 -8t-56 -8t-8 -56t8 -56t56 -8t56 -8t8 -56t-8 -56t-56 -8h-64v-256h-128v256h-128v-256h-128v256h-64q-48 0 -56 8t-8 56t8 56t56 8t56 8t8 56t-8 56t-56 8t-56 8t-8 56t8 56t56 8h64zM384 448
q0 48 -8 56t-56 8t-56 -8t-8 -56t8 -56t56 -8t56 8t8 56z" />
    <glyph glyph-name="dollar" unicode="$" 
d="M256 832q0 48 8 56t56 8t56 -8t8 -56v-64h256v-128h-256v-64q0 -48 8 -56t56 -8t56 -8t8 -56t8 -56t56 -8t56 -8t8 -56t-8 -56t-56 -8t-56 -8t-8 -56t-8 -56t-56 -8t-56 -8t-8 -56t-8 -56t-56 -8t-56 8t-8 56v64h-256v128h256v64q0 48 -8 56t-56 8t-56 8t-8 56t-8 56
t-56 8t-56 8t-8 56t8 56t56 8t56 8t8 56t8 56t56 8t56 8t8 56zM256 576q0 48 -8 56t-56 8t-56 -8t-8 -56t8 -56t56 -8t56 8t8 56zM512 320q0 48 -8 56t-56 8t-56 -8t-8 -56t8 -56t56 -8t56 8t8 56z" />
    <glyph glyph-name="percent" unicode="%" 
d="M0 640v256h256v-256h-256zM512 704q0 48 8 56t56 8t56 -8t8 -56t-8 -56t-56 -8t-56 -8t-8 -56t-8 -56t-56 -8t-56 -8t-8 -56t-8 -56t-56 -8t-56 -8t-8 -56t-8 -56t-56 -8t-56 -8t-8 -56t-8 -56t-56 -8t-56 8t-8 56t8 56t56 8t56 8t8 56t8 56t56 8t56 8t8 56t8 56t56 8
t56 8t8 56t8 56t56 8t56 8t8 56zM384 0v256h256v-256h-256z" />
    <glyph glyph-name="ampersand" unicode="&#x26;" 
d="M128 832q0 48 8 56t56 8t56 -8t8 -56t8 -56t56 -8t56 -8t8 -56t-8 -56t-56 -8t-56 -8t-8 -56t8 -56t56 -8t56 -8t8 -56t8 -56t56 -8t56 8t8 56t8 56t56 8t56 -8t8 -56t-8 -56t-56 -8t-56 -8t-8 -56t8 -56t56 -8t56 -8t8 -56v-64h-256v-128h-256v64q0 48 -8 56t-56 8h-64
v384h64q48 0 56 8t8 56t-8 56t-56 8t-56 8t-8 56t8 56t56 8t56 8t8 56zM256 704q0 48 -8 56t-56 8t-56 -8t-8 -56t8 -56t56 -8t56 8t8 56zM256 448q0 48 -8 56t-56 8h-64v-384h256v256h-64q-48 0 -56 8t-8 56z" />
    <glyph glyph-name="quotesingle" unicode="'" 
d="M384 832q0 48 8 56t56 8t56 -8t8 -56t-8 -56t-56 -8t-56 -8t-8 -56t-8 -56t-56 -8t-56 -8t-8 -56t-8 -56t-56 -8t-56 8t-8 56t8 56t56 8t56 8t8 56t8 56t56 8t56 8t8 56z" />
    <glyph glyph-name="parenleft" unicode="(" 
d="M384 832q0 48 8 56t56 8t56 -8t8 -56t-8 -56t-56 -8t-56 -8t-8 -56t-8 -56t-56 -8h-64v-384h64q48 0 56 -8t8 -56t8 -56t56 -8t56 -8t8 -56t-8 -56t-56 -8t-56 8t-8 56t-8 56t-56 8t-56 8t-8 56t-8 56t-56 8h-64v384h64q48 0 56 8t8 56t8 56t56 8t56 8t8 56z" />
    <glyph glyph-name="parenright" unicode=")" 
d="M128 832q0 48 8 56t56 8t56 -8t8 -56t8 -56t56 -8t56 -8t8 -56t8 -56t56 -8h64v-384h-64q-48 0 -56 -8t-8 -56t-8 -56t-56 -8t-56 -8t-8 -56t-8 -56t-56 -8t-56 8t-8 56t8 56t56 8t56 8t8 56t8 56t56 8h64v384h-64q-48 0 -56 8t-8 56t-8 56t-56 8t-56 8t-8 56z" />
    <glyph glyph-name="asterisk" unicode="*" 
d="M256 640v256h128v-256h64q48 0 56 8t8 56t8 56t56 8t56 -8t8 -56t-8 -56t-56 -8t-56 -8t-8 -56t-8 -56t-56 -8t-56 -8t-8 -56t8 -56t56 -8t56 -8t8 -56t8 -56t56 -8t56 -8t8 -56t-8 -56t-56 -8t-56 8t-8 56t-8 56t-56 8h-64v-256h-128v256h-64q-48 0 -56 -8t-8 -56
t-8 -56t-56 -8t-56 8t-8 56t8 56t56 8t56 8t8 56t8 56t56 8t56 8t8 56t-8 56t-56 8t-56 8t-8 56t-8 56t-56 8t-56 8t-8 56t8 56t56 8t56 -8t8 -56t8 -56t56 -8h64z" />
    <glyph glyph-name="plus" unicode="+" 
d="M256 512v256h128v-256h256v-128h-256v-256h-128v256h-256v128h256z" />
    <glyph glyph-name="comma" unicode="," 
d="M256 0v256h128v-256h-64q-48 0 -56 -8t-8 -56t-8 -56t-56 -8t-56 8t-8 56t8 56t56 8h64z" />
    <glyph glyph-name="hyphen" unicode="-" 
d="M128 384v128h512v-128h-512z" />
    <glyph glyph-name="period" unicode="." 
d="M128 0v256h256v-256h-256z" />
    <glyph glyph-name="slash" unicode="/" 
d="M512 576q0 48 8 56t56 8t56 -8t8 -56t-8 -56t-56 -8t-56 -8t-8 -56t-8 -56t-56 -8t-56 -8t-8 -56t-8 -56t-56 -8t-56 -8t-8 -56t-8 -56t-56 -8t-56 -8t-8 -56t-8 -56t-56 -8t-56 8t-8 56t8 56t56 8t56 8t8 56t8 56t56 8t56 8t8 56t8 56t56 8t56 8t8 56t8 56t56 8t56 8
t8 56z" />
    <glyph glyph-name="zero" unicode="0" 
d="M128 832v64h384v-64q0 -48 8 -56t56 -8h64v-640h-64q-48 0 -56 -8t-8 -56v-64h-384v64q0 48 -8 56t-56 8h-64v640h64q48 0 56 8t8 56zM512 704v64h-384v-384h64q48 0 56 8t8 56t8 56t56 8t56 8t8 56t8 56t56 8t56 8t8 56zM512 128v384h-64q-48 0 -56 -8t-8 -56t-8 -56
t-56 -8t-56 -8t-8 -56t-8 -56t-56 -8t-56 -8t-8 -56v-64h384z" />
    <glyph glyph-name="one" unicode="1" 
d="M256 832q0 48 8 56t56 8h64v-768h256v-128h-640v128h256v512h-64q-48 0 -56 -8t-8 -56t-8 -56t-56 -8t-56 8t-8 56t8 56t56 8t56 8t8 56t8 56t56 8t56 8t8 56z" />
    <glyph glyph-name="two" unicode="2" 
d="M128 832v64h384v-64q0 -48 8 -56t56 -8h64v-256h-64q-48 0 -56 -8t-8 -56t-8 -56t-56 -8t-56 -8t-8 -56v-64h-256v-128h512v-128h-640v256h64q48 0 56 8t8 56v64h256v64q0 48 8 56t56 8h64v256h-384v-64q0 -48 -8 -56t-56 -8t-56 8t-8 56t8 56t56 8t56 8t8 56z" />
    <glyph glyph-name="three" unicode="3" 
d="M128 832v64h384v-64q0 -48 8 -56t56 -8h64v-256h-64q-48 0 -56 -8t-8 -56t8 -56t56 -8h64v-256h-64q-48 0 -56 -8t-8 -56v-64h-384v64q0 48 -8 56t-56 8t-56 8t-8 56t8 56t56 8t56 -8t8 -56v-64h384v256h-256v128h256v256h-384v-64q0 -48 -8 -56t-56 -8t-56 8t-8 56t8 56
t56 8t56 8t8 56z" />
    <glyph glyph-name="four" unicode="4" 
d="M384 832q0 48 8 56t56 8h64v-512h64q48 0 56 -8t8 -56t-8 -56t-56 -8h-64v-256h-128v256h-384v256h64q48 0 56 8t8 56t8 56t56 8t56 8t8 56t8 56t56 8t56 8t8 56zM384 384v256h-64q-48 0 -56 -8t-8 -56t-8 -56t-56 -8t-56 -8t-8 -56v-64h256z" />
    <glyph glyph-name="five" unicode="5" 
d="M0 512v384h640v-128h-512v-128h256v-64q0 -48 8 -56t56 -8t56 -8t8 -56t8 -56t56 -8t56 -8t8 -56t-8 -56t-56 -8t-56 -8t-8 -56t-8 -56t-56 -8t-56 -8t-8 -56v-64h-384v128h384v64q0 48 8 56t56 8t56 8t8 56t-8 56t-56 8t-56 8t-8 56v64h-384z" />
    <glyph glyph-name="six" unicode="6" 
d="M256 832v64h256v-128h-256v-64q0 -48 -8 -56t-56 -8t-56 -8t-8 -56v-64h384v-64q0 -48 8 -56t56 -8h64v-256h-64q-48 0 -56 -8t-8 -56v-64h-384v64q0 48 -8 56t-56 8h-64v512h64q48 0 56 8t8 56t8 56t56 8t56 8t8 56zM512 128v256h-384v-256h384z" />
    <glyph glyph-name="seven" unicode="7" 
d="M0 640v256h640v-256h-64q-48 0 -56 -8t-8 -56t-8 -56t-56 -8h-64v-512h-128v512h64q48 0 56 8t8 56t8 56t56 8t56 8t8 56v64h-384v-64q0 -48 -8 -56t-56 -8h-64z" />
    <glyph glyph-name="eight" unicode="8" 
d="M128 832v64h384v-64q0 -48 8 -56t56 -8h64v-256h-64q-48 0 -56 -8t-8 -56t8 -56t56 -8h64v-256h-64q-48 0 -56 -8t-8 -56v-64h-384v64q0 48 -8 56t-56 8h-64v256h64q48 0 56 8t8 56t-8 56t-56 8h-64v256h64q48 0 56 8t8 56zM512 512v256h-384v-256h384zM512 128v256h-384
v-256h384z" />
    <glyph glyph-name="nine" unicode="9" 
d="M128 832v64h384v-64q0 -48 8 -56t56 -8h64v-512h-64q-48 0 -56 -8t-8 -56t-8 -56t-56 -8t-56 -8t-8 -56v-64h-256v128h256v64q0 48 8 56t56 8t56 8t8 56v64h-384v64q0 48 -8 56t-56 8h-64v256h64q48 0 56 8t8 56zM512 512v256h-384v-256h384z" />
    <glyph glyph-name="colon" unicode=":" 
d="M256 576q0 48 8 56t56 8t56 -8t8 -56t-8 -56t-56 -8t-56 8t-8 56zM256 192q0 48 8 56t56 8t56 -8t8 -56t-8 -56t-56 -8t-56 8t-8 56z" />
    <glyph glyph-name="semicolon" unicode=";" 
d="M256 576q0 48 8 56t56 8t56 -8t8 -56t-8 -56t-56 -8t-56 8t-8 56zM256 0v256h128v-256h-64q-48 0 -56 -8t-8 -56t-8 -56t-56 -8t-56 8t-8 56t8 56t56 8h64z" />
    <glyph glyph-name="less" unicode="&#x3c;" 
d="M384 832v64h256v-64q0 -48 -8 -56t-56 -8t-56 -8t-8 -56t-8 -56t-56 -8t-56 -8t-8 -56t-8 -56t-56 -8t-56 -8t-8 -56t8 -56t56 -8t56 -8t8 -56t8 -56t56 -8t56 -8t8 -56t8 -56t56 -8t56 -8t8 -56v-64h-256v64q0 48 -8 56t-56 8t-56 8t-8 56t-8 56t-56 8t-56 8t-8 56
t-8 56t-56 8t-56 8t-8 56t8 56t56 8t56 8t8 56t8 56t56 8t56 8t8 56t8 56t56 8t56 8t8 56z" />
    <glyph glyph-name="equal" unicode="=" 
d="M0 512v128h640v-128h-640zM0 256v128h640v-128h-640z" />
    <glyph glyph-name="greater" unicode="&#x3e;" 
d="M0 832v64h256v-64q0 -48 8 -56t56 -8t56 -8t8 -56t8 -56t56 -8t56 -8t8 -56t8 -56t56 -8t56 -8t8 -56t-8 -56t-56 -8t-56 -8t-8 -56t-8 -56t-56 -8t-56 -8t-8 -56t-8 -56t-56 -8t-56 -8t-8 -56v-64h-256v64q0 48 8 56t56 8t56 8t8 56t8 56t56 8t56 8t8 56t8 56t56 8t56 8
t8 56t-8 56t-56 8t-56 8t-8 56t-8 56t-56 8t-56 8t-8 56t-8 56t-56 8t-56 8t-8 56z" />
    <glyph glyph-name="question" unicode="?" 
d="M128 832v64h384v-64q0 -48 8 -56t56 -8h64v-256h-64q-48 0 -56 -8t-8 -56t-8 -56t-56 -8t-56 -8t-8 -56t-8 -56t-56 -8t-56 8t-8 56t8 56t56 8t56 8t8 56t8 56t56 8h64v256h-384v-64q0 -48 -8 -56t-56 -8t-56 8t-8 56t8 56t56 8t56 8t8 56zM256 64q0 48 8 56t56 8t56 -8
t8 -56t-8 -56t-56 -8t-56 8t-8 56z" />
    <glyph glyph-name="at" unicode="@" 
d="M128 832v64h384v-64q0 -48 8 -56t56 -8h64v-640h-64q-48 0 -56 -8t-8 -56v-64h-384v64q0 48 -8 56t-56 8h-64v256h64q48 0 56 8t8 56v64h256v-384h128v640h-384v-64q0 -48 -8 -56t-56 -8t-56 8t-8 56t8 56t56 8t56 8t8 56zM256 128v256h-128v-256h128z" />
    <glyph glyph-name="A" unicode="A" 
d="M256 832q0 48 8 56t56 8t56 -8t8 -56t8 -56t56 -8t56 -8t8 -56t8 -56t56 -8h64v-640h-128v256h-384v-256h-128v640h64q48 0 56 8t8 56t8 56t56 8t56 8t8 56zM384 704q0 48 -8 56t-56 8t-56 -8t-8 -56t-8 -56t-56 -8h-64v-256h384v256h-64q-48 0 -56 8t-8 56z" />
    <glyph glyph-name="B" unicode="B" 
d="M0 832v64h512v-64q0 -48 8 -56t56 -8h64v-256h-64q-48 0 -56 -8t-8 -56t8 -56t56 -8h64v-256h-64q-48 0 -56 -8t-8 -56v-64h-512v64q0 48 8 56t56 8h64v640h-64q-48 0 -56 8t-8 56zM512 512v256h-256v-256h256zM512 128v256h-256v-256h256z" />
    <glyph glyph-name="C" unicode="C" 
d="M256 832v64h256v-64q0 -48 8 -56t56 -8t56 -8t8 -56t-8 -56t-56 -8t-56 8t-8 56v64h-256v-64q0 -48 -8 -56t-56 -8h-64v-384h64q48 0 56 -8t8 -56v-64h256v64q0 48 8 56t56 8t56 -8t8 -56t-8 -56t-56 -8t-56 -8t-8 -56v-64h-256v64q0 48 -8 56t-56 8t-56 8t-8 56t-8 56
t-56 8h-64v384h64q48 0 56 8t8 56t8 56t56 8t56 8t8 56z" />
    <glyph glyph-name="D" unicode="D" 
d="M0 832v64h384v-64q0 -48 8 -56t56 -8t56 -8t8 -56t8 -56t56 -8h64v-384h-64q-48 0 -56 -8t-8 -56t-8 -56t-56 -8t-56 -8t-8 -56v-64h-384v64q0 48 8 56t56 8h64v640h-64q-48 0 -56 8t-8 56zM384 704q0 48 -8 56t-56 8h-64v-640h64q48 0 56 8t8 56t8 56t56 8h64v384h-64
q-48 0 -56 8t-8 56z" />
    <glyph glyph-name="E" unicode="E" 
d="M0 0v896h640v-128h-512v-256h384v-128h-384v-256h512v-128h-640z" />
    <glyph glyph-name="F" unicode="F" 
d="M0 0v896h640v-128h-512v-256h384v-128h-384v-384h-128z" />
    <glyph glyph-name="G" unicode="G" 
d="M128 832v64h384v-64q0 -48 8 -56t56 -8t56 -8t8 -56t-8 -56t-56 -8t-56 8t-8 56v64h-384v-640h384v256h-256v128h384v-384h-64q-48 0 -56 -8t-8 -56v-64h-384v64q0 48 -8 56t-56 8h-64v640h64q48 0 56 8t8 56z" />
    <glyph glyph-name="H" unicode="H" 
d="M0 0v896h128v-384h384v384h128v-896h-128v384h-384v-384h-128z" />
    <glyph glyph-name="I" unicode="I" 
d="M128 832v64h384v-64q0 -48 -8 -56t-56 -8h-64v-640h64q48 0 56 -8t8 -56v-64h-384v64q0 48 8 56t56 8h64v640h-64q-48 0 -56 8t-8 56z" />
    <glyph glyph-name="J" unicode="J" 
d="M256 832v64h384v-64q0 -48 -8 -56t-56 -8h-64v-640h-64q-48 0 -56 -8t-8 -56v-64h-256v64q0 48 -8 56t-56 8h-64v256h128v-256h256v640h-64q-48 0 -56 8t-8 56z" />
    <glyph glyph-name="K" unicode="K" 
d="M0 0v896h128v-384h64q48 0 56 8t8 56t8 56t56 8t56 8t8 56t8 56t56 8t56 8t8 56t8 56t56 8t56 -8t8 -56t-8 -56t-56 -8t-56 -8t-8 -56t-8 -56t-56 -8t-56 -8t-8 -56t-8 -56t-56 -8t-56 -8t-8 -56t8 -56t56 -8t56 -8t8 -56t8 -56t56 -8t56 -8t8 -56t8 -56t56 -8t56 -8
t8 -56t-8 -56t-56 -8t-56 8t-8 56t-8 56t-56 8t-56 8t-8 56t-8 56t-56 8t-56 8t-8 56t-8 56t-56 8h-64v-384h-128z" />
    <glyph glyph-name="L" unicode="L" 
d="M0 0v896h128v-768h512v-128h-640z" />
    <glyph glyph-name="M" unicode="M" 
d="M0 0v896h64q48 0 56 -8t8 -56t8 -56t56 -8t56 -8t8 -56t8 -56t56 -8t56 8t8 56t8 56t56 8t56 8t8 56t8 56t56 8h64v-896h-128v640h-128v-256h-128v256h-128v-640h-128z" />
    <glyph glyph-name="N" unicode="N" 
d="M0 0v896h64q48 0 56 -8t8 -56t8 -56t56 -8h64v-256h64q48 0 56 -8t8 -56t8 -56t56 -8h64v512h128v-896h-64q-48 0 -56 8t-8 56t-8 56t-56 8h-64v256h-64q-48 0 -56 8t-8 56t-8 56t-56 8h-64v-512h-128z" />
    <glyph glyph-name="O" unicode="O" 
d="M128 832v64h384v-64q0 -48 8 -56t56 -8h64v-640h-64q-48 0 -56 -8t-8 -56v-64h-384v64q0 48 -8 56t-56 8h-64v640h64q48 0 56 8t8 56zM512 128v640h-384v-640h384z" />
    <glyph glyph-name="P" unicode="P" 
d="M0 0v896h512v-64q0 -48 8 -56t56 -8h64v-256h-64q-48 0 -56 -8t-8 -56v-64h-384v-384h-128zM512 512v256h-384v-256h384z" />
    <glyph glyph-name="Q" unicode="Q" 
d="M128 832v64h384v-64q0 -48 8 -56t56 -8h64v-512h-64q-48 0 -56 -8t-8 -56t8 -56t56 -8t56 -8t8 -56t-8 -56t-56 -8t-56 8t-8 56t-8 56t-56 8t-56 -8t-8 -56v-64h-256v64q0 48 -8 56t-56 8h-64v640h64q48 0 56 8t8 56zM512 256v512h-384v-640h256v64q0 48 -8 56t-56 8
t-56 8t-8 56t8 56t56 8t56 -8t8 -56t8 -56t56 -8h64z" />
    <glyph glyph-name="R" unicode="R" 
d="M0 0v896h512v-64q0 -48 8 -56t56 -8h64v-256h-64q-48 0 -56 -8t-8 -56t-8 -56t-56 -8t-56 -8t-8 -56t8 -56t56 -8t56 -8t8 -56t8 -56t56 -8t56 -8t8 -56t-8 -56t-56 -8t-56 8t-8 56t-8 56t-56 8t-56 8t-8 56t-8 56t-56 8t-56 8t-8 56t-8 56t-56 8h-64v-384h-128zM512 512
v256h-384v-256h384z" />
    <glyph glyph-name="S" unicode="S" 
d="M128 832v64h384v-64q0 -48 8 -56t56 -8t56 -8t8 -56t-8 -56t-56 -8t-56 8t-8 56v64h-384v-256h384v-64q0 -48 8 -56t56 -8h64v-256h-64q-48 0 -56 -8t-8 -56v-64h-384v64q0 48 -8 56t-56 8t-56 8t-8 56t8 56t56 8t56 -8t8 -56v-64h384v256h-384v64q0 48 -8 56t-56 8h-64
v256h64q48 0 56 8t8 56z" />
    <glyph glyph-name="T" unicode="T" 
d="M0 768v128h640v-128h-256v-768h-128v768h-256z" />
    <glyph glyph-name="U" unicode="U" 
d="M0 128v768h128v-768h384v768h128v-768h-64q-48 0 -56 -8t-8 -56v-64h-384v64q0 48 -8 56t-56 8h-64z" />
    <glyph glyph-name="V" unicode="V" 
d="M0 384v512h128v-512h128v-256h128v256h128v512h128v-512h-128v-256h-64q-48 0 -56 -8t-8 -56t-8 -56t-56 -8t-56 8t-8 56t-8 56t-56 8h-64v256h-128z" />
    <glyph glyph-name="W" unicode="W" 
d="M0 0v896h128v-640h128v256h128v-256h128v640h128v-896h-64q-48 0 -56 8t-8 56t-8 56t-56 8t-56 8t-8 56t-8 56t-56 8t-56 -8t-8 -56t-8 -56t-56 -8t-56 -8t-8 -56t-8 -56t-56 -8h-64z" />
    <glyph glyph-name="X" unicode="X" 
d="M0 640v256h128v-256h64q48 0 56 -8t8 -56t8 -56t56 -8t56 8t8 56t8 56t56 8h64v256h128v-256h-64q-48 0 -56 -8t-8 -56t-8 -56t-56 -8t-56 -8t-8 -56t8 -56t56 -8t56 -8t8 -56t8 -56t56 -8h64v-256h-128v256h-64q-48 0 -56 8t-8 56t-8 56t-56 8t-56 -8t-8 -56t-8 -56
t-56 -8h-64v-256h-128v256h64q48 0 56 8t8 56t8 56t56 8t56 8t8 56t-8 56t-56 8t-56 8t-8 56t-8 56t-56 8h-64z" />
    <glyph glyph-name="Y" unicode="Y" 
d="M0 512v384h128v-384h384v384h128v-384h-64q-48 0 -56 -8t-8 -56t-8 -56t-56 -8h-64v-384h-128v384h-64q-48 0 -56 8t-8 56t-8 56t-56 8h-64z" />
    <glyph glyph-name="Z" unicode="Z" 
d="M0 768v128h640v-256h-64q-48 0 -56 -8t-8 -56t-8 -56t-56 -8t-56 -8t-8 -56t-8 -56t-56 -8t-56 -8t-8 -56t-8 -56t-56 -8t-56 -8t-8 -56v-64h512v-128h-640v256h64q48 0 56 8t8 56t8 56t56 8t56 8t8 56t8 56t56 8t56 8t8 56t8 56t56 8t56 8t8 56v64h-512z" />
    <glyph glyph-name="bracketleft" unicode="[" 
d="M128 0v896h384v-128h-256v-640h256v-128h-384z" />
    <glyph glyph-name="backslash" unicode="\" 
d="M0 576q0 48 8 56t56 8t56 -8t8 -56t8 -56t56 -8t56 -8t8 -56t8 -56t56 -8t56 -8t8 -56t8 -56t56 -8t56 -8t8 -56t8 -56t56 -8t56 -8t8 -56t-8 -56t-56 -8t-56 8t-8 56t-8 56t-56 8t-56 8t-8 56t-8 56t-56 8t-56 8t-8 56t-8 56t-56 8t-56 8t-8 56t-8 56t-56 8t-56 8t-8 56
z" />
    <glyph glyph-name="bracketright" unicode="]" 
d="M128 768v128h384v-896h-384v128h256v640h-256z" />
    <glyph glyph-name="asciicircum" unicode="^" 
d="M256 832q0 48 8 56t56 8t56 -8t8 -56t8 -56t56 -8t56 -8t8 -56t8 -56t56 -8t56 -8t8 -56t-8 -56t-56 -8t-56 8t-8 56t-8 56t-56 8t-56 8t-8 56t-8 56t-56 8t-56 -8t-8 -56t-8 -56t-56 -8t-56 -8t-8 -56t-8 -56t-56 -8t-56 8t-8 56t8 56t56 8t56 8t8 56t8 56t56 8t56 8
t8 56z" />
    <glyph glyph-name="underscore" unicode="_" 
d="M0 0v128h640v-128h-640z" />
    <glyph glyph-name="grave" unicode="`" 
d="M128 832q0 48 8 56t56 8t56 -8t8 -56t8 -56t56 -8t56 -8t8 -56t8 -56t56 -8t56 -8t8 -56t-8 -56t-56 -8t-56 8t-8 56t-8 56t-56 8t-56 8t-8 56t-8 56t-56 8t-56 8t-8 56z" />
    <glyph glyph-name="a" unicode="a" 
d="M128 512v128h384v-64q0 -48 8 -56t56 -8h64v-512h-512v64q0 48 -8 56t-56 8t-56 8t-8 56t8 56t56 8t56 8t8 56v64h384v128h-384zM512 128v128h-384v-128h384z" />
    <glyph glyph-name="b" unicode="b" 
d="M0 0v896h128v-384h64q48 0 56 8t8 56v64h256v-64q0 -48 8 -56t56 -8h64v-384h-64q-48 0 -56 -8t-8 -56v-64h-256v64q0 48 -8 56t-56 8t-56 -8t-8 -56t-8 -56t-56 -8h-64zM512 128v384h-256v-64q0 -48 -8 -56t-56 -8t-56 -8t-8 -56t8 -56t56 -8t56 -8t8 -56v-64h256z" />
    <glyph glyph-name="c" unicode="c" 
d="M128 576v64h384v-64q0 -48 8 -56t56 -8t56 -8t8 -56t-8 -56t-56 -8t-56 8t-8 56v64h-384v-384h384v64q0 48 8 56t56 8t56 -8t8 -56t-8 -56t-56 -8t-56 -8t-8 -56v-64h-384v64q0 48 -8 56t-56 8h-64v384h64q48 0 56 8t8 56z" />
    <glyph glyph-name="d" unicode="d" 
d="M512 512v384h128v-896h-64q-48 0 -56 8t-8 56t-8 56t-56 8t-56 -8t-8 -56v-64h-256v64q0 48 -8 56t-56 8h-64v384h64q48 0 56 8t8 56v64h256v-64q0 -48 8 -56t56 -8h64zM384 448v64h-256v-384h256v64q0 48 8 56t56 8t56 8t8 56t-8 56t-56 8t-56 8t-8 56z" />
    <glyph glyph-name="e" unicode="e" 
d="M128 576v64h384v-64q0 -48 8 -56t56 -8h64v-256h-512v-128h384v-128h-384v64q0 48 -8 56t-56 8h-64v384h64q48 0 56 8t8 56zM512 384v128h-384v-128h384z" />
    <glyph glyph-name="f" unicode="f" 
d="M384 832q0 48 8 56t56 8t56 -8t8 -56t8 -56t56 -8t56 -8t8 -56t-8 -56t-56 -8t-56 8t-8 56t-8 56t-56 8h-64v-256h256v-128h-256v-384h-128v384h-256v128h256v256h64q48 0 56 8t8 56z" />
    <glyph glyph-name="g" unicode="g" 
d="M128 576v64h256v-64q0 -48 8 -56t56 -8t56 8t8 56t8 56t56 8h64v-640h-64q-48 0 -56 -8t-8 -56v-64h-384v128h384v256h-64q-48 0 -56 -8t-8 -56v-64h-256v64q0 48 -8 56t-56 8h-64v256h64q48 0 56 8t8 56zM384 256v256h-256v-256h256z" />
    <glyph glyph-name="h" unicode="h" 
d="M0 0v896h128v-256h384v-64q0 -48 8 -56t56 -8h64v-512h-128v512h-384v-512h-128z" />
    <glyph glyph-name="i" unicode="i" 
d="M256 832q0 48 8 56t56 8t56 -8t8 -56t-8 -56t-56 -8t-56 8t-8 56zM128 576v64h256v-512h64q48 0 56 -8t8 -56v-64h-384v64q0 48 8 56t56 8h64v384h-64q-48 0 -56 8t-8 56z" />
    <glyph glyph-name="j" unicode="j" 
d="M384 832q0 48 8 56t56 8t56 -8t8 -56t-8 -56t-56 -8t-56 8t-8 56zM256 576v64h256v-640h-64q-48 0 -56 -8t-8 -56v-64h-256v64q0 48 -8 56t-56 8t-56 8t-8 56t8 56t56 8t56 -8t8 -56v-64h256v512h-64q-48 0 -56 8t-8 56z" />
    <glyph glyph-name="k" unicode="k" 
d="M128 0v896h128v-512h64q48 0 56 8t8 56t8 56t56 8t56 8t8 56t8 56t56 8t56 -8t8 -56t-8 -56t-56 -8t-56 -8t-8 -56t-8 -56t-56 -8t-56 -8t-8 -56t8 -56t56 -8t56 -8t8 -56t8 -56t56 -8t56 -8t8 -56t-8 -56t-56 -8t-56 8t-8 56t-8 56t-56 8t-56 8t-8 56t-8 56t-56 8h-64
v-256h-128z" />
    <glyph glyph-name="l" unicode="l" 
d="M128 832v64h256v-768h64q48 0 56 -8t8 -56v-64h-384v64q0 48 8 56t56 8h64v640h-64q-48 0 -56 8t-8 56z" />
    <glyph glyph-name="m" unicode="m" 
d="M0 0v640h256v-64q0 -48 8 -56t56 -8t56 8t8 56t8 56t56 8t56 -8t8 -56t8 -56t56 -8h64v-512h-128v512h-128v-512h-128v512h-128v-512h-128z" />
    <glyph glyph-name="n" unicode="n" 
d="M0 0v640h64q48 0 56 -8t8 -56t8 -56t56 -8t56 8t8 56v64h256v-64q0 -48 8 -56t56 -8h64v-512h-128v512h-256v-64q0 -48 -8 -56t-56 -8h-64v-384h-128z" />
    <glyph glyph-name="o" unicode="o" 
d="M128 576v64h384v-64q0 -48 8 -56t56 -8h64v-384h-64q-48 0 -56 -8t-8 -56v-64h-384v64q0 48 -8 56t-56 8h-64v384h64q48 0 56 8t8 56zM512 128v384h-384v-384h384z" />
    <glyph glyph-name="p" unicode="p" 
d="M0 -128v768h64q48 0 56 -8t8 -56t8 -56t56 -8t56 8t8 56v64h256v-64q0 -48 8 -56t56 -8h64v-256h-64q-48 0 -56 -8t-8 -56v-64h-256v64q0 48 -8 56t-56 8h-64v-384h-128zM512 256v256h-256v-256h256z" />
    <glyph glyph-name="q" unicode="q" 
d="M128 576v64h256v-64q0 -48 8 -56t56 -8t56 8t8 56t8 56t56 8h64v-768h-128v384h-64q-48 0 -56 -8t-8 -56v-64h-256v64q0 48 -8 56t-56 8h-64v256h64q48 0 56 8t8 56zM384 256v256h-256v-256h256z" />
    <glyph glyph-name="r" unicode="r" 
d="M0 0v640h64q48 0 56 -8t8 -56t8 -56t56 -8t56 8t8 56v64h256v-64q0 -48 8 -56t56 -8t56 -8t8 -56t-8 -56t-56 -8t-56 8t-8 56v64h-256v-64q0 -48 -8 -56t-56 -8h-64v-384h-128z" />
    <glyph glyph-name="s" unicode="s" 
d="M128 576v64h512v-128h-512v-128h384v-64q0 -48 8 -56t56 -8t56 -8t8 -56t-8 -56t-56 -8t-56 -8t-8 -56v-64h-512v128h512v128h-512v256h64q48 0 56 8t8 56z" />
    <glyph glyph-name="t" unicode="t" 
d="M128 640v256h128v-256h256v-128h-256v-384h256v64q0 48 8 56t56 8t56 -8t8 -56t-8 -56t-56 -8t-56 -8t-8 -56v-64h-256v64q0 48 -8 56t-56 8h-64v384h-64q-48 0 -56 8t-8 56t8 56t56 8h64z" />
    <glyph glyph-name="u" unicode="u" 
d="M0 128v512h128v-512h256v512h128v-512h64q48 0 56 -8t8 -56t-8 -56t-56 -8t-56 8t-8 56t-8 56t-56 8t-56 -8t-8 -56v-64h-256v64q0 48 -8 56t-56 8h-64z" />
    <glyph glyph-name="v" unicode="v" 
d="M0 256v384h128v-384h64q48 0 56 -8t8 -56t8 -56t56 -8t56 8t8 56t8 56t56 8h64v384h128v-384h-64q-48 0 -56 -8t-8 -56t-8 -56t-56 -8t-56 -8t-8 -56t-8 -56t-56 -8t-56 8t-8 56t-8 56t-56 8t-56 8t-8 56t-8 56t-56 8h-64z" />
    <glyph glyph-name="w" unicode="w" 
d="M0 128v512h128v-512h128v384h128v-384h128v512h128v-512h-64q-48 0 -56 -8t-8 -56t-8 -56t-56 -8t-56 8t-8 56t-8 56t-56 8t-56 -8t-8 -56t-8 -56t-56 -8t-56 8t-8 56t-8 56t-56 8h-64z" />
    <glyph glyph-name="x" unicode="x" 
d="M0 576q0 48 8 56t56 8t56 -8t8 -56t8 -56t56 -8t56 -8t8 -56t8 -56t56 -8t56 8t8 56t8 56t56 8t56 8t8 56t8 56t56 8t56 -8t8 -56t-8 -56t-56 -8t-56 -8t-8 -56t-8 -56t-56 -8t-56 -8t-8 -56t8 -56t56 -8t56 -8t8 -56t8 -56t56 -8t56 -8t8 -56t-8 -56t-56 -8t-56 8t-8 56
t-8 56t-56 8t-56 8t-8 56t-8 56t-56 8t-56 -8t-8 -56t-8 -56t-56 -8t-56 -8t-8 -56t-8 -56t-56 -8t-56 8t-8 56t8 56t56 8t56 8t8 56t8 56t56 8t56 8t8 56t-8 56t-56 8t-56 8t-8 56t-8 56t-56 8t-56 8t-8 56z" />
    <glyph glyph-name="y" unicode="y" 
d="M0 256v384h128v-384h256v64q0 48 8 56t56 8h64v256h128v-640h-64q-48 0 -56 -8t-8 -56v-64h-384v128h384v256h-64q-48 0 -56 -8t-8 -56v-64h-256v64q0 48 -8 56t-56 8h-64z" />
    <glyph glyph-name="z" unicode="z" 
d="M0 512v128h640v-64q0 -48 -8 -56t-56 -8t-56 -8t-8 -56t-8 -56t-56 -8t-56 -8t-8 -56t-8 -56t-56 -8t-56 -8t-8 -56v-64h384v-128h-640v64q0 48 8 56t56 8t56 8t8 56t8 56t56 8t56 8t8 56t8 56t56 8t56 8t8 56v64h-384z" />
    <glyph glyph-name="braceleft" unicode="{" 
d="M384 832v64h256v-128h-256v-256h-64q-48 0 -56 -8t-8 -56t8 -56t56 -8h64v-256h256v-128h-256v64q0 48 -8 56t-56 8h-64v256h-64q-48 0 -56 8t-8 56t8 56t56 8h64v256h64q48 0 56 8t8 56z" />
    <glyph glyph-name="bar" unicode="|" 
d="M256 512v384h128v-384h-128zM256 0v384h128v-384h-128z" />
    <glyph glyph-name="braceright" unicode="}" 
d="M0 768v128h256v-64q0 -48 8 -56t56 -8h64v-256h64q48 0 56 -8t8 -56t-8 -56t-56 -8h-64v-256h-64q-48 0 -56 -8t-8 -56v-64h-256v128h256v256h64q48 0 56 8t8 56t-8 56t-56 8h-64v256h-256z" />
    <glyph glyph-name="asciitilde" unicode="~" 
d="M128 832q0 48 8 56t56 8t56 -8t8 -56t8 -56t56 -8t56 -8t8 -56t8 -56t56 -8t56 8t8 56t8 56t56 8t56 -8t8 -56t-8 -56t-56 -8t-56 -8t-8 -56t-8 -56t-56 -8t-56 8t-8 56t-8 56t-56 8t-56 8t-8 56t-8 56t-56 8t-56 -8t-8 -56t-8 -56t-56 -8t-56 8t-8 56t8 56t56 8t56 8
t8 56z" />
    <glyph glyph-name="exclamdown" unicode="&#xa1;" 
d="M256 832q0 48 8 56t56 8t56 -8t8 -56t-8 -56t-56 -8t-56 8t-8 56zM256 0v512h128v-512h-128z" />
    <glyph glyph-name="cent" unicode="&#xa2;" 
d="M256 640v256h128v-256h256v-128h-512v-256h512v-128h-256v-256h-128v256h-64q-48 0 -56 8t-8 56t-8 56t-56 8h-64v256h64q48 0 56 8t8 56t8 56t56 8h64z" />
    <glyph glyph-name="sterling" unicode="&#xa3;" 
d="M384 832v64h256v-64q0 -48 8 -56t56 -8t56 -8t8 -56t-8 -56t-56 -8t-56 8t-8 56v64h-256v-256h256v-128h-256v-256h384v-128h-384v64q0 48 -8 56t-56 8t-56 -8t-8 -56t-8 -56t-56 -8t-56 8t-8 56t-8 56t-56 8t-56 8t-8 56v64h256v128h-256v128h256v256h64q48 0 56 8t8 56
z" />
    <glyph glyph-name="yen" unicode="&#xa5;" 
d="M0 832q0 48 8 56t56 8t56 -8t8 -56t8 -56t56 -8t56 -8t8 -56t8 -56t56 -8t56 8t8 56t8 56t56 8t56 8t8 56t8 56t56 8t56 -8t8 -56t-8 -56t-56 -8t-56 -8t-8 -56t-8 -56t-56 -8t-56 -8t-8 -56v-64h256v-128h-256v-128h256v-128h-256v-64q0 -48 -8 -56t-56 -8t-56 8t-8 56
v64h-256v128h256v128h-256v128h256v64q0 48 -8 56t-56 8t-56 8t-8 56t-8 56t-56 8t-56 8t-8 56z" />
    <glyph glyph-name="section" unicode="&#xa7;" 
d="M256 832v64h384v-128h-384v-128h256v-64q0 -48 8 -56t56 -8h64v-256h-64q-48 0 -56 -8t-8 -56t8 -56t56 -8t56 -8t8 -56t-8 -56t-56 -8t-56 -8t-8 -56v-64h-384v128h384v128h-256v64q0 48 -8 56t-56 8h-64v256h64q48 0 56 8t8 56t-8 56t-56 8t-56 8t-8 56t8 56t56 8t56 8
t8 56zM512 256v256h-256v-256h256z" />
    <glyph glyph-name="ordfeminine" unicode="&#xaa;" 
d="M128 640v128h384v-64q0 -48 8 -56t56 -8h64v-512h-512v64q0 48 -8 56t-56 8t-56 8t-8 56t8 56t56 8t56 8t8 56v64h384v128h-384zM512 256v128h-384v-128h384zM0 -128v128h640v-128h-640z" />
    <glyph glyph-name="guillemotleft" unicode="&#xab;" 
d="M256 576q0 48 8 56t56 8t56 -8t8 -56t-8 -56t-56 -8t-56 -8t-8 -56t-8 -56t-56 -8t-56 -8t-8 -56t8 -56t56 -8t56 -8t8 -56t8 -56t56 -8t56 -8t8 -56t-8 -56t-56 -8t-56 8t-8 56t-8 56t-56 8t-56 8t-8 56t-8 56t-56 8t-56 8t-8 56t8 56t56 8t56 8t8 56t8 56t56 8t56 8
t8 56zM640 576q0 48 8 56t56 8t56 -8t8 -56t-8 -56t-56 -8t-56 -8t-8 -56t-8 -56t-56 -8t-56 -8t-8 -56t8 -56t56 -8t56 -8t8 -56t8 -56t56 -8t56 -8t8 -56t-8 -56t-56 -8t-56 8t-8 56t-8 56t-56 8t-56 8t-8 56t-8 56t-56 8t-56 8t-8 56t8 56t56 8t56 8t8 56t8 56t56 8t56 8
t8 56z" />
    <glyph glyph-name="logicalnot" unicode="&#xac;" 
d="M0 384v128h640v-384h-128v256h-512z" />
    <glyph glyph-name="degree" unicode="&#xb0;" 
d="M384 704v64h256v-64q0 -48 8 -56t56 -8h64v-256h-64q-48 0 -56 -8t-8 -56v-64h-256v64q0 48 -8 56t-56 8h-64v256h64q48 0 56 8t8 56zM640 384v256h-256v-256h256z" />
    <glyph glyph-name="plusminus" unicode="&#xb1;" 
d="M256 640v256h128v-256h256v-128h-256v-256h-128v256h-256v128h256zM0 0v128h640v-128h-640z" />
    <glyph glyph-name="uni00B2" unicode="&#xb2;" 
d="M128 832q0 48 8 56t56 8t56 -8t8 -56t8 -56t56 -8h64v-256h-64q-48 0 -56 -8t-8 -56t8 -56t56 -8t56 -8t8 -56v-64h-384v64q0 48 8 56t56 8t56 8t8 56t8 56t56 8h64v256h-64q-48 0 -56 -8t-8 -56t-8 -56t-56 -8t-56 8t-8 56t8 56t56 8t56 8t8 56z" />
    <glyph glyph-name="paragraph" unicode="&#xb6;" 
d="M128 832v64h640v-64q0 -48 -8 -56t-56 -8h-64v-768h-128v768h-128v-768h-128v384h-64q-48 0 -56 8t-8 56t-8 56t-56 8h-64v256h64q48 0 56 8t8 56zM256 512v256h-128v-256h128z" />
    <glyph glyph-name="periodcentered" unicode="&#xb7;" 
d="M256 256v256h256v-256h-256z" />
    <glyph glyph-name="ordmasculine" unicode="&#xba;" 
d="M128 704v64h256v-64q0 -48 8 -56t56 -8h64v-384h-64q-48 0 -56 -8t-8 -56v-64h-256v64q0 48 -8 56t-56 8h-64v384h64q48 0 56 8t8 56zM384 256v384h-256v-384h256zM0 -128v128h512v-128h-512z" />
    <glyph glyph-name="guillemotright" unicode="&#xbb;" 
d="M0 576q0 48 8 56t56 8t56 -8t8 -56t8 -56t56 -8t56 -8t8 -56t8 -56t56 -8t56 -8t8 -56t-8 -56t-56 -8t-56 -8t-8 -56t-8 -56t-56 -8t-56 -8t-8 -56t-8 -56t-56 -8t-56 8t-8 56t8 56t56 8t56 8t8 56t8 56t56 8t56 8t8 56t-8 56t-56 8t-56 8t-8 56t-8 56t-56 8t-56 8t-8 56
zM384 576q0 48 8 56t56 8t56 -8t8 -56t8 -56t56 -8t56 -8t8 -56t8 -56t56 -8t56 -8t8 -56t-8 -56t-56 -8t-56 -8t-8 -56t-8 -56t-56 -8t-56 -8t-8 -56t-8 -56t-56 -8t-56 8t-8 56t8 56t56 8t56 8t8 56t8 56t56 8t56 8t8 56t-8 56t-56 8t-56 8t-8 56t-8 56t-56 8t-56 8t-8 56
z" />
    <glyph glyph-name="onequarter" unicode="&#xbc;" 
d="M0 384v512h128v-512h64q48 0 56 8t8 56t8 56t56 8t56 8t8 56t8 56t56 8t56 8t8 56t8 56t56 8t56 8t8 56t8 56t56 8t56 -8t8 -56t-8 -56t-56 -8t-56 -8t-8 -56t-8 -56t-56 -8t-56 -8t-8 -56t8 -56t56 -8h64v-384h64q48 0 56 -8t8 -56t-8 -56t-56 -8t-56 -8t-8 -56t-8 -56
t-56 -8t-56 8t-8 56v64h-256v256h-64q-48 0 -56 -8t-8 -56t-8 -56t-56 -8t-56 8t-8 56t8 56t56 8t56 8t8 56t-8 56t-56 8h-64zM512 448q0 48 -8 56t-56 8t-56 -8t-8 -56t8 -56t56 -8t56 8t8 56zM384 320q0 48 -8 56t-56 8t-56 -8t-8 -56t8 -56t56 -8t56 8t8 56zM512 192
q0 48 -8 56t-56 8t-56 -8t-8 -56t8 -56t56 -8t56 8t8 56z" />
    <glyph glyph-name="onehalf" unicode="&#xbd;" 
d="M0 384v512h128v-512h64q48 0 56 8t8 56t8 56t56 8t56 8t8 56t8 56t56 8t56 8t8 56t8 56t56 8t56 8t8 56t8 56t56 8t56 -8t8 -56t-8 -56t-56 -8t-56 -8t-8 -56t-8 -56t-56 -8t-56 -8t-8 -56t8 -56t56 -8t56 -8t8 -56t8 -56t56 -8h64v-256h-64q-48 0 -56 -8t-8 -56t8 -56
t56 -8t56 -8t8 -56v-64h-384v64q0 48 8 56t56 8t56 8t8 56t8 56t56 8h64v256h-64q-48 0 -56 -8t-8 -56t-8 -56t-56 -8t-56 8t-8 56t-8 56t-56 8t-56 -8t-8 -56t-8 -56t-56 -8t-56 -8t-8 -56t-8 -56t-56 -8t-56 8t-8 56t8 56t56 8t56 8t8 56t-8 56t-56 8h-64zM512 448
q0 48 -8 56t-56 8t-56 -8t-8 -56t8 -56t56 -8t56 8t8 56z" />
    <glyph glyph-name="threequarters" unicode="&#xbe;" 
d="M0 832v64h256v-512h64q48 0 56 8t8 56t8 56t56 8t56 8t8 56t8 56t56 8t56 8t8 56t8 56t56 8t56 -8t8 -56t-8 -56t-56 -8t-56 -8t-8 -56t8 -56t56 -8h64v-640h-64q-48 0 -56 8t-8 56v64h-256v256h-64q-48 0 -56 -8t-8 -56t-8 -56t-56 -8t-56 -8t-8 -56t-8 -56t-56 -8
t-56 8t-8 56t8 56t56 8t56 8t8 56t-8 56t-56 8t-56 8t-8 56t8 56t56 8t56 8t8 56t-8 56t-56 8t-56 8t-8 56t8 56t56 8t56 8t8 56t-8 56t-56 8t-56 8t-8 56zM640 448q0 48 -8 56t-56 8t-56 -8t-8 -56t8 -56t56 -8t56 8t8 56zM512 320q0 48 -8 56t-56 8t-56 -8t-8 -56t8 -56
t56 -8t56 8t8 56zM640 192q0 48 -8 56t-56 8t-56 -8t-8 -56t8 -56t56 -8t56 8t8 56z" />
    <glyph glyph-name="questiondown" unicode="&#xbf;" 
d="M256 832q0 48 8 56t56 8t56 -8t8 -56t-8 -56t-56 -8t-56 8t-8 56zM256 576q0 48 8 56t56 8t56 -8t8 -56t-8 -56t-56 -8t-56 -8t-8 -56t-8 -56t-56 -8h-64v-256h384v64q0 48 8 56t56 8t56 -8t8 -56t-8 -56t-56 -8t-56 -8t-8 -56v-64h-384v64q0 48 -8 56t-56 8h-64v256h64
q48 0 56 8t8 56t8 56t56 8t56 8t8 56z" />
    <glyph glyph-name="Atilde" unicode="&#xc3;" 
d="M256 832q0 48 8 56t56 8t56 -8t8 -56t8 -56t56 -8t56 8t8 56t8 56t56 8t56 -8t8 -56t-8 -56t-56 -8t-56 -8t-8 -56t-8 -56t-56 -8t-56 -8t-8 -56t8 -56t56 -8t56 -8t8 -56t8 -56t56 -8h64v-384h-64q-48 0 -56 8t-8 56v64h-384v-64q0 -48 -8 -56t-56 -8h-64v384h64
q48 0 56 8t8 56t8 56t56 8t56 8t8 56t-8 56t-56 8t-56 8t-8 56t8 56t56 8t56 8t8 56zM384 704q0 48 -8 56t-56 8t-56 -8t-8 -56t8 -56t56 -8t56 8t8 56zM384 448q0 48 -8 56t-56 8t-56 -8t-8 -56t-8 -56t-56 -8t-56 -8t-8 -56v-64h384v64q0 48 -8 56t-56 8t-56 8t-8 56z" />
    <glyph glyph-name="Adieresis" unicode="&#xc4;" 
d="M128 832q0 48 8 56t56 8t56 -8t8 -56t-8 -56t-56 -8t-56 8t-8 56zM384 832q0 48 8 56t56 8t56 -8t8 -56t-8 -56t-56 -8t-56 8t-8 56zM256 576q0 48 8 56t56 8t56 -8t8 -56t8 -56t56 -8t56 -8t8 -56t8 -56t56 -8h64v-384h-64q-48 0 -56 8t-8 56v64h-384v-64q0 -48 -8 -56
t-56 -8h-64v384h64q48 0 56 8t8 56t8 56t56 8t56 8t8 56zM384 448q0 48 -8 56t-56 8t-56 -8t-8 -56t-8 -56t-56 -8t-56 -8t-8 -56v-64h384v64q0 48 -8 56t-56 8t-56 8t-8 56z" />
    <glyph glyph-name="Aring" unicode="&#xc5;" 
d="M256 832q0 48 8 56t56 8t56 -8t8 -56t-8 -56t-56 -8t-56 8t-8 56zM256 576q0 48 8 56t56 8t56 -8t8 -56t8 -56t56 -8t56 -8t8 -56t8 -56t56 -8h64v-384h-64q-48 0 -56 8t-8 56v64h-384v-64q0 -48 -8 -56t-56 -8h-64v384h64q48 0 56 8t8 56t8 56t56 8t56 8t8 56zM384 448
q0 48 -8 56t-56 8t-56 -8t-8 -56t-8 -56t-56 -8t-56 -8t-8 -56v-64h384v64q0 48 -8 56t-56 8t-56 8t-8 56z" />
    <glyph glyph-name="AE" unicode="&#xc6;" 
d="M256 832v64h512v-128h-256v-256h256v-128h-256v-256h256v-128h-384v256h-256v-256h-128v640h64q48 0 56 8t8 56t8 56t56 8t56 8t8 56zM384 384v384h-64q-48 0 -56 -8t-8 -56t-8 -56t-56 -8h-64v-256h256z" />
    <glyph glyph-name="Ccedilla" unicode="&#xc7;" 
d="M128 832v64h384v-64q0 -48 8 -56t56 -8t56 -8t8 -56t-8 -56t-56 -8t-56 8t-8 56v64h-384v-512h384v64q0 48 8 56t56 8t56 -8t8 -56t-8 -56t-56 -8t-56 -8t-8 -56t-8 -56t-56 -8h-64v-256h-256v64q0 48 8 56t56 8t56 8t8 56t-8 56t-56 8t-56 8t-8 56t-8 56t-56 8h-64v512
h64q48 0 56 8t8 56z" />
    <glyph glyph-name="Eacute" unicode="&#xc9;" 
d="M384 832q0 48 8 56t56 8t56 -8t8 -56t-8 -56t-56 -8t-56 -8t-8 -56v-64h256v-128h-512v-128h384v-128h-384v-128h512v-128h-640v640h256v64q0 48 8 56t56 8t56 8t8 56z" />
    <glyph glyph-name="Ntilde" unicode="&#xd1;" 
d="M256 832q0 48 8 56t56 8t56 -8t8 -56t8 -56t56 -8t56 8t8 56t8 56t56 8t56 -8t8 -56t-8 -56t-56 -8t-56 -8t-8 -56t-8 -56t-56 -8t-56 8t-8 56t-8 56t-56 8t-56 -8t-8 -56t-8 -56t-56 -8t-56 8t-8 56t8 56t56 8t56 8t8 56zM0 0v512h256v-64q0 -48 8 -56t56 -8t56 -8
t8 -56t8 -56t56 -8h64v256h128v-512h-64q-48 0 -56 8t-8 56t-8 56t-56 8t-56 8t-8 56t-8 56t-56 8t-56 8t-8 56t-8 56t-56 8h-64v-384h-128z" />
    <glyph glyph-name="Otilde" unicode="&#xd5;" 
d="M256 832q0 48 8 56t56 8t56 -8t8 -56t8 -56t56 -8t56 8t8 56t8 56t56 8t56 -8t8 -56t-8 -56t-56 -8t-56 -8t-8 -56t-8 -56t-56 -8t-56 8t-8 56t-8 56t-56 8t-56 -8t-8 -56t-8 -56t-56 -8t-56 8t-8 56t8 56t56 8t56 8t8 56zM128 448v64h384v-64q0 -48 8 -56t56 -8h64v-256
h-64q-48 0 -56 -8t-8 -56v-64h-384v64q0 48 -8 56t-56 8h-64v256h64q48 0 56 8t8 56zM512 128v256h-384v-256h384z" />
    <glyph glyph-name="Odieresis" unicode="&#xd6;" 
d="M128 832q0 48 8 56t56 8t56 -8t8 -56t-8 -56t-56 -8t-56 8t-8 56zM384 832q0 48 8 56t56 8t56 -8t8 -56t-8 -56t-56 -8t-56 8t-8 56zM128 576v64h384v-64q0 -48 8 -56t56 -8h64v-384h-64q-48 0 -56 -8t-8 -56v-64h-384v64q0 48 -8 56t-56 8h-64v384h64q48 0 56 8t8 56z
M512 128v384h-384v-384h384z" />
    <glyph glyph-name="Udieresis" unicode="&#xdc;" 
d="M128 832q0 48 8 56t56 8t56 -8t8 -56t-8 -56t-56 -8t-56 8t-8 56zM384 832q0 48 8 56t56 8t56 -8t8 -56t-8 -56t-56 -8t-56 8t-8 56zM0 128v512h128v-512h384v512h128v-512h-64q-48 0 -56 -8t-8 -56v-64h-384v64q0 48 -8 56t-56 8h-64z" />
    <glyph glyph-name="agrave" unicode="&#xe0;" 
d="M256 832q0 48 8 56t56 8t56 -8t8 -56t8 -56t56 -8h64v-256h128v-512h-512v64q0 48 -8 56t-56 8t-56 8t-8 56t8 56t56 8t56 8t8 56v64h384v128h-384v128h256v64q0 48 -8 56t-56 8t-56 8t-8 56zM512 128v128h-384v-128h384z" />
    <glyph glyph-name="aacute" unicode="&#xe1;" 
d="M384 832q0 48 8 56t56 8t56 -8t8 -56t-8 -56t-56 -8t-56 -8t-8 -56t8 -56t56 -8t56 -8t8 -56t8 -56t56 -8h64v-512h-512v64q0 48 -8 56t-56 8t-56 8t-8 56t8 56t56 8t56 8t8 56v64h384v128h-384v64q0 48 8 56t56 8t56 8t8 56t8 56t56 8t56 8t8 56zM512 128v128h-384v-128
h384z" />
    <glyph glyph-name="acircumflex" unicode="&#xe2;" 
d="M256 832q0 48 8 56t56 8t56 -8t8 -56t8 -56t56 -8h64v-256h128v-512h-512v64q0 48 -8 56t-56 8t-56 8t-8 56t8 56t56 8t56 8t8 56v64h384v128h-384v256h64q48 0 56 8t8 56zM384 704q0 48 -8 56t-56 8t-56 -8t-8 -56t8 -56t56 -8t56 8t8 56zM512 128v128h-384v-128h384z
" />
    <glyph glyph-name="atilde" unicode="&#xe3;" 
d="M256 832q0 48 8 56t56 8t56 -8t8 -56t8 -56t56 -8t56 8t8 56t8 56t56 8t56 -8t8 -56t-8 -56t-56 -8h-64v-256h128v-512h-512v64q0 48 -8 56t-56 8t-56 8t-8 56t8 56t56 8t56 8t8 56v64h384v128h-384v256h64q48 0 56 8t8 56zM384 704q0 48 -8 56t-56 8t-56 -8t-8 -56
t8 -56t56 -8t56 8t8 56zM512 128v128h-384v-128h384z" />
    <glyph glyph-name="adieresis" unicode="&#xe4;" 
d="M128 832q0 48 8 56t56 8t56 -8t8 -56t-8 -56t-56 -8t-56 8t-8 56zM512 832q0 48 8 56t56 8t56 -8t8 -56t-8 -56t-56 -8t-56 8t-8 56zM128 512v128h384v-64q0 -48 8 -56t56 -8h64v-512h-512v64q0 48 -8 56t-56 8t-56 8t-8 56t8 56t56 8t56 8t8 56v64h384v128h-384z
M512 128v128h-384v-128h384z" />
    <glyph glyph-name="aring" unicode="&#xe5;" 
d="M256 832q0 48 8 56t56 8t56 -8t8 -56t-8 -56t-56 -8t-56 8t-8 56zM128 512v128h384v-64q0 -48 8 -56t56 -8h64v-512h-512v64q0 48 -8 56t-56 8t-56 8t-8 56t8 56t56 8t56 8t8 56v64h384v128h-384zM512 128v128h-384v-128h384z" />
    <glyph glyph-name="ae" unicode="&#xe6;" 
d="M128 512v128h256v-64q0 -48 8 -56t56 -8t56 8t8 56v64h256v-128h-256v-128h256v-128h-256v-128h256v-128h-256v64q0 48 -8 56t-56 8t-56 -8t-8 -56v-64h-256v64q0 48 -8 56t-56 8t-56 8t-8 56t8 56t56 8t56 8t8 56v64h256v128h-256zM384 128v128h-256v-128h256z" />
    <glyph glyph-name="ccedilla" unicode="&#xe7;" 
d="M128 704v64h384v-128h-384v-384h384v-256h-64q-48 0 -56 -8t-8 -56v-64h-256v128h256v128h-256v64q0 48 -8 56t-56 8h-64v384h64q48 0 56 8t8 56z" />
    <glyph glyph-name="egrave" unicode="&#xe8;" 
d="M256 832q0 48 8 56t56 8t56 -8t8 -56t8 -56t56 -8h64v-256h128v-256h-512v-128h384v-128h-384v64q0 48 -8 56t-56 8h-64v384h64q48 0 56 8t8 56v64h256v64q0 48 -8 56t-56 8t-56 8t-8 56zM512 384v128h-384v-128h384z" />
    <glyph glyph-name="eacute" unicode="&#xe9;" 
d="M384 832q0 48 8 56t56 8t56 -8t8 -56t-8 -56t-56 -8t-56 -8t-8 -56t8 -56t56 -8t56 -8t8 -56t8 -56t56 -8h64v-256h-512v-128h384v-128h-384v64q0 48 -8 56t-56 8h-64v384h64q48 0 56 8t8 56t8 56t56 8t56 8t8 56t8 56t56 8t56 8t8 56zM512 384v128h-384v-128h384z" />
    <glyph glyph-name="ecircumflex" unicode="&#xea;" 
d="M256 832q0 48 8 56t56 8t56 -8t8 -56t8 -56t56 -8h64v-256h128v-256h-512v-128h384v-128h-384v64q0 48 -8 56t-56 8h-64v384h128v256h64q48 0 56 8t8 56zM384 704q0 48 -8 56t-56 8t-56 -8t-8 -56t8 -56t56 -8t56 8t8 56zM512 384v128h-384v-128h384z" />
    <glyph glyph-name="edieresis" unicode="&#xeb;" 
d="M128 832q0 48 8 56t56 8t56 -8t8 -56t-8 -56t-56 -8t-56 8t-8 56zM384 832q0 48 8 56t56 8t56 -8t8 -56t-8 -56t-56 -8t-56 8t-8 56zM128 576v64h384v-64q0 -48 8 -56t56 -8h64v-256h-512v-128h384v-128h-384v64q0 48 -8 56t-56 8h-64v384h64q48 0 56 8t8 56zM512 384
v128h-384v-128h384z" />
    <glyph glyph-name="igrave" unicode="&#xec;" 
d="M128 832q0 48 8 56t56 8t56 -8t8 -56t8 -56t56 -8t56 -8t8 -56t-8 -56t-56 -8t-56 8t-8 56t-8 56t-56 8t-56 8t-8 56zM128 448v64h256v-384h64q48 0 56 -8t8 -56v-64h-384v64q0 48 8 56t56 8h64v256h-64q-48 0 -56 8t-8 56z" />
    <glyph glyph-name="iacute" unicode="&#xed;" 
d="M384 832q0 48 8 56t56 8t56 -8t8 -56t-8 -56t-56 -8t-56 -8t-8 -56t-8 -56t-56 -8t-56 8t-8 56t8 56t56 8t56 8t8 56zM128 448v64h256v-384h64q48 0 56 -8t8 -56v-64h-384v64q0 48 8 56t56 8h64v256h-64q-48 0 -56 8t-8 56z" />
    <glyph glyph-name="icircumflex" unicode="&#xee;" 
d="M256 832q0 48 8 56t56 8t56 -8t8 -56t8 -56t56 -8t56 -8t8 -56t-8 -56t-56 -8t-56 8t-8 56t-8 56t-56 8t-56 -8t-8 -56t-8 -56t-56 -8t-56 8t-8 56t8 56t56 8t56 8t8 56zM128 448v64h256v-384h64q48 0 56 -8t8 -56v-64h-384v64q0 48 8 56t56 8h64v256h-64q-48 0 -56 8
t-8 56z" />
    <glyph glyph-name="idieresis" unicode="&#xef;" 
d="M128 832q0 48 8 56t56 8t56 -8t8 -56t-8 -56t-56 -8t-56 8t-8 56zM384 832q0 48 8 56t56 8t56 -8t8 -56t-8 -56t-56 -8t-56 8t-8 56zM128 448v64h256v-384h64q48 0 56 -8t8 -56v-64h-384v64q0 48 8 56t56 8h64v256h-64q-48 0 -56 8t-8 56z" />
    <glyph glyph-name="ntilde" unicode="&#xf1;" 
d="M128 832q0 48 8 56t56 8t56 -8t8 -56t8 -56t56 -8t56 8t8 56t8 56t56 8t56 -8t8 -56t-8 -56t-56 -8t-56 -8t-8 -56t-8 -56t-56 -8t-56 8t-8 56t-8 56t-56 8t-56 -8t-8 -56t-8 -56t-56 -8t-56 8t-8 56t8 56t56 8t56 8t8 56zM0 0v512h64q48 0 56 -8t8 -56t8 -56t56 -8t56 8
t8 56t8 56t56 8t56 -8t8 -56t8 -56t56 -8h64v-384h-128v384h-64q-48 0 -56 -8t-8 -56t-8 -56t-56 -8h-64v-256h-128z" />
    <glyph glyph-name="ograve" unicode="&#xf2;" 
d="M128 832q0 48 8 56t56 8t56 -8t8 -56t8 -56t56 -8t56 -8t8 -56t-8 -56t-56 -8t-56 8t-8 56t-8 56t-56 8t-56 8t-8 56zM128 448v64h256v-64q0 -48 8 -56t56 -8h64v-256h-64q-48 0 -56 -8t-8 -56v-64h-256v64q0 48 -8 56t-56 8h-64v256h64q48 0 56 8t8 56zM384 128v256
h-256v-256h256z" />
    <glyph glyph-name="oacute" unicode="&#xf3;" 
d="M256 832q0 48 8 56t56 8t56 -8t8 -56t-8 -56t-56 -8t-56 -8t-8 -56t-8 -56t-56 -8t-56 8t-8 56t8 56t56 8t56 8t8 56zM128 448v64h256v-64q0 -48 8 -56t56 -8h64v-256h-64q-48 0 -56 -8t-8 -56v-64h-256v64q0 48 -8 56t-56 8h-64v256h64q48 0 56 8t8 56zM384 128v256
h-256v-256h256z" />
    <glyph glyph-name="ocircumflex" unicode="&#xf4;" 
d="M128 832v64h256v-64q0 -48 8 -56t56 -8t56 -8t8 -56t-8 -56t-56 -8t-56 8t-8 56v64h-256v-64q0 -48 -8 -56t-56 -8t-56 8t-8 56t8 56t56 8t56 8t8 56zM128 448v64h256v-64q0 -48 8 -56t56 -8h64v-256h-64q-48 0 -56 -8t-8 -56v-64h-256v64q0 48 -8 56t-56 8h-64v256h64
q48 0 56 8t8 56zM384 128v256h-256v-256h256z" />
    <glyph glyph-name="otilde" unicode="&#xf5;" 
d="M128 832q0 48 8 56t56 8t56 -8t8 -56t8 -56t56 -8t56 8t8 56t8 56t56 8t56 -8t8 -56t-8 -56t-56 -8t-56 -8t-8 -56t-8 -56t-56 -8t-56 8t-8 56t-8 56t-56 8t-56 -8t-8 -56t-8 -56t-56 -8t-56 8t-8 56t8 56t56 8t56 8t8 56zM128 448v64h256v-64q0 -48 8 -56t56 -8h64v-256
h-64q-48 0 -56 -8t-8 -56v-64h-256v64q0 48 -8 56t-56 8h-64v256h64q48 0 56 8t8 56zM384 128v256h-256v-256h256z" />
    <glyph glyph-name="odieresis" unicode="&#xf6;" 
d="M0 832q0 48 8 56t56 8t56 -8t8 -56t-8 -56t-56 -8t-56 8t-8 56zM384 832q0 48 8 56t56 8t56 -8t8 -56t-8 -56t-56 -8t-56 8t-8 56zM128 448v64h256v-64q0 -48 8 -56t56 -8h64v-256h-64q-48 0 -56 -8t-8 -56v-64h-256v64q0 48 -8 56t-56 8h-64v256h64q48 0 56 8t8 56z
M384 128v256h-256v-256h256z" />
    <glyph glyph-name="divide" unicode="&#xf7;" 
d="M256 704q0 48 8 56t56 8t56 -8t8 -56t-8 -56t-56 -8t-56 8t-8 56zM0 384v128h640v-128h-640zM256 192q0 48 8 56t56 8t56 -8t8 -56t-8 -56t-56 -8t-56 8t-8 56z" />
    <glyph glyph-name="ugrave" unicode="&#xf9;" 
d="M128 832q0 48 8 56t56 8t56 -8t8 -56t8 -56t56 -8t56 -8t8 -56t-8 -56t-56 -8t-56 8t-8 56t-8 56t-56 8t-56 8t-8 56zM0 128v384h128v-384h128v384h128v-384h64q48 0 56 -8t8 -56t-8 -56t-56 -8t-56 8t-8 56t-8 56t-56 8t-56 -8t-8 -56t-8 -56t-56 -8t-56 8t-8 56t-8 56
t-56 8h-64z" />
    <glyph glyph-name="uacute" unicode="&#xfa;" 
d="M256 832q0 48 8 56t56 8t56 -8t8 -56t-8 -56t-56 -8t-56 -8t-8 -56t-8 -56t-56 -8t-56 8t-8 56t8 56t56 8t56 8t8 56zM0 128v384h128v-384h256v384h128v-384h64q48 0 56 -8t8 -56t-8 -56t-56 -8t-56 8t-8 56t-8 56t-56 8t-56 -8t-8 -56v-64h-256v64q0 48 -8 56t-56 8h-64
z" />
    <glyph glyph-name="ucircumflex" unicode="&#xfb;" 
d="M128 832q0 48 8 56t56 8t56 -8t8 -56t8 -56t56 -8t56 -8t8 -56t-8 -56t-56 -8t-56 8t-8 56t-8 56t-56 8t-56 -8t-8 -56t-8 -56t-56 -8t-56 8t-8 56t8 56t56 8t56 8t8 56zM0 128v384h128v-384h128v384h128v-384h64q48 0 56 -8t8 -56t-8 -56t-56 -8t-56 8t-8 56t-8 56
t-56 8t-56 -8t-8 -56t-8 -56t-56 -8t-56 8t-8 56t-8 56t-56 8h-64z" />
    <glyph glyph-name="udieresis" unicode="&#xfc;" 
d="M0 832q0 48 8 56t56 8t56 -8t8 -56t-8 -56t-56 -8t-56 8t-8 56zM384 832q0 48 8 56t56 8t56 -8t8 -56t-8 -56t-56 -8t-56 8t-8 56zM0 128v384h128v-384h256v384h128v-384h64q48 0 56 -8t8 -56t-8 -56t-56 -8t-56 8t-8 56t-8 56t-56 8t-56 -8t-8 -56v-64h-256v64
q0 48 -8 56t-56 8h-64z" />
    <glyph glyph-name="ydieresis" unicode="&#xff;" 
d="M0 832q0 48 8 56t56 8t56 -8t8 -56t-8 -56t-56 -8t-56 8t-8 56zM384 832q0 48 8 56t56 8t56 -8t8 -56t-8 -56t-56 -8t-56 8t-8 56zM0 256v384h128v-384h64q48 0 56 8t8 56t8 56t56 8h64v256h128v-640h-64q-48 0 -56 -8t-8 -56v-64h-384v128h384v256h-64q-48 0 -56 -8
t-8 -56t-8 -56t-56 -8t-56 8t-8 56t-8 56t-56 8h-64z" />
    <glyph glyph-name="glyph125" unicode="&#x20a7;" 
d="M0 -128v1024h256v-64q0 -48 8 -56t56 -8h64v-256h-64q-48 0 -56 -8t-8 -56t-8 -56t-56 -8h-64v-512h-128zM256 512v256h-128v-256h128zM512 448q0 48 8 56t56 8t56 -8t8 -56t8 -56t56 -8t56 -8t8 -56t-8 -56t-56 -8h-64v-256h64q48 0 56 -8t8 -56v-64h-256v384h-64
q-48 0 -56 8t-8 56t8 56t56 8t56 8t8 56z" />
    <glyph glyph-name="glyph126" unicode="&#x192;" 
d="M384 832v64h256v-128h-256v-256h256v-128h-256v-384h-64q-48 0 -56 -8t-8 -56t-8 -56t-56 -8t-56 8t-8 56t8 56t56 8h64v384h-256v128h256v256h64q48 0 56 8t8 56z" />
    <glyph glyph-name="glyph136" unicode="&#x2310;" 
d="M0 128v384h640v-128h-512v-256h-128z" />
    <glyph glyph-name="glyph145" unicode="&#x128;" 
d="M256 832q0 48 8 56t56 8t56 -8t8 -56t8 -56t56 -8t56 8t8 56t8 56t56 8t56 -8t8 -56t-8 -56t-56 -8t-56 -8t-8 -56t-8 -56t-56 -8t-56 8t-8 56t-8 56t-56 8t-56 -8t-8 -56t-8 -56t-56 -8t-56 8t-8 56t8 56t56 8t56 8t8 56zM128 448v64h384v-64q0 -48 -8 -56t-56 -8h-64
v-256h64q48 0 56 -8t8 -56v-64h-384v64q0 48 8 56t56 8h64v256h-64q-48 0 -56 8t-8 56z" />
    <glyph glyph-name="glyph146" unicode="&#x129;" 
d="M256 832q0 48 8 56t56 8t56 -8t8 -56t8 -56t56 -8t56 8t8 56t8 56t56 8t56 -8t8 -56t-8 -56t-56 -8t-56 -8t-8 -56t-8 -56t-56 -8t-56 8t-8 56t-8 56t-56 8t-56 -8t-8 -56t-8 -56t-56 -8t-56 8t-8 56t8 56t56 8t56 8t8 56zM256 128v384h128v-384h64q48 0 56 -8t8 -56v-64
h-384v64q0 48 8 56t56 8h64z" />
    <glyph glyph-name="glyph149" unicode="&#x168;" 
d="M256 832q0 48 8 56t56 8t56 -8t8 -56t8 -56t56 -8t56 8t8 56t8 56t56 8t56 -8t8 -56t-8 -56t-56 -8t-56 -8t-8 -56t-8 -56t-56 -8t-56 8t-8 56t-8 56t-56 8t-56 -8t-8 -56t-8 -56t-56 -8t-56 8t-8 56t8 56t56 8t56 8t8 56zM0 128v384h128v-384h384v384h128v-384h-64
q-48 0 -56 -8t-8 -56v-64h-384v64q0 48 -8 56t-56 8h-64z" />
    <glyph glyph-name="glyph150" unicode="&#x169;" 
d="M128 832q0 48 8 56t56 8t56 -8t8 -56t8 -56t56 -8t56 8t8 56t8 56t56 8t56 -8t8 -56t-8 -56t-56 -8t-56 -8t-8 -56t-8 -56t-56 -8t-56 8t-8 56t-8 56t-56 8t-56 -8t-8 -56t-8 -56t-56 -8t-56 8t-8 56t8 56t56 8t56 8t8 56zM0 128v384h128v-384h128v384h128v-384h64
q48 0 56 -8t8 -56t-8 -56t-56 -8t-56 8t-8 56t-8 56t-56 8t-56 -8t-8 -56t-8 -56t-56 -8t-56 8t-8 56t-8 56t-56 8h-64z" />
    <glyph glyph-name="glyph151" unicode="&#x132;" 
d="M0 832v64h768v-64q0 -48 -8 -56t-56 -8h-64v-640h-64q-48 0 -56 -8t-8 -56t-8 -56t-56 -8t-56 -8t-8 -56t-8 -56t-56 -8t-56 8t-8 56t-8 56t-56 8t-56 8t-8 56t8 56t56 8t56 -8t8 -56t8 -56t56 -8t56 8t8 56t8 56t56 8h64v640h-256v-384h64q48 0 56 -8t8 -56v-64h-384v64
q0 48 8 56t56 8h64v384h-64q-48 0 -56 8t-8 56z" />
    <glyph glyph-name="glyph152" unicode="&#x133;" 
d="M128 704q0 48 8 56t56 8t56 -8t8 -56t-8 -56t-56 -8t-56 8t-8 56zM384 704q0 48 8 56t56 8t56 -8t8 -56t-8 -56t-56 -8t-56 8t-8 56zM128 128v384h128v-384h-128zM384 0v512h128v-512h-64q-48 0 -56 -8t-8 -56t-8 -56t-56 -8t-56 8t-8 56t8 56t56 8h64z" />
    <glyph glyph-name="glyph154" unicode="&#x223d;" 
d="M384 832q0 48 8 56t56 8t56 -8t8 -56t8 -56t56 -8t56 -8t8 -56t-8 -56t-56 -8t-56 8t-8 56t-8 56t-56 8t-56 -8t-8 -56t-8 -56t-56 -8t-56 -8t-8 -56t-8 -56t-56 -8t-56 8t-8 56t-8 56t-56 8t-56 8t-8 56t8 56t56 8t56 -8t8 -56t8 -56t56 -8t56 8t8 56t8 56t56 8t56 8
t8 56z" />
    <glyph glyph-name="glyph155" unicode="&#x25c7;" 
d="M256 704q0 48 8 56t56 8t56 -8t8 -56t8 -56t56 -8t56 -8t8 -56t8 -56t56 -8t56 -8t8 -56t-8 -56t-56 -8t-56 -8t-8 -56t-8 -56t-56 -8t-56 -8t-8 -56t-8 -56t-56 -8t-56 8t-8 56t-8 56t-56 8t-56 8t-8 56t-8 56t-56 8t-56 8t-8 56t8 56t56 8t56 8t8 56t8 56t56 8t56 8
t8 56zM384 576q0 48 -8 56t-56 8t-56 -8t-8 -56t-8 -56t-56 -8t-56 -8t-8 -56t8 -56t56 -8t56 -8t8 -56t8 -56t56 -8t56 8t8 56t8 56t56 8t56 8t8 56t-8 56t-56 8t-56 8t-8 56z" />
    <glyph glyph-name="glyph156" unicode="&#x2030;" 
d="M0 832q0 48 8 56t56 8t56 -8t8 -56t-8 -56t-56 -8t-56 8t-8 56zM512 832q0 48 8 56t56 8t56 -8t8 -56t-8 -56t-56 -8t-56 -8t-8 -56t-8 -56t-56 -8t-56 -8t-8 -56t-8 -56t-56 -8t-56 -8t-8 -56t-8 -56t-56 -8t-56 -8t-8 -56t-8 -56t-56 -8t-56 8t-8 56t8 56t56 8t56 8
t8 56t8 56t56 8t56 8t8 56t8 56t56 8t56 8t8 56t8 56t56 8t56 8t8 56zM256 192q0 48 8 56t56 8t56 -8t8 -56t-8 -56t-56 -8t-56 8t-8 56zM512 192q0 48 8 56t56 8t56 -8t8 -56t-8 -56t-56 -8t-56 8t-8 56z" />
    <glyph glyph-name="glyph159" unicode="&#x2582;" 
d="M0 -128v256h768v-256h-768z" />
    <glyph glyph-name="glyph160" unicode="&#x259a;" 
d="M0 384v512h512v-512h256v-512h-256v512h-512z" />
    <glyph glyph-name="glyph161" unicode="&#x2586;" 
d="M0 -128v768h768v-768h-768z" />
    <glyph glyph-name="glyph162" unicode="&#x2594;" 
d="M0 640v256h768v-256h-768z" />
    <glyph glyph-name="glyph163" unicode="&#x25fe;" 
d="M256 256v256h512v-256h-512z" />
    <glyph glyph-name="glyph164" unicode="&#x2587;" 
d="M0 128v768h768v-768h-768z" />
    <glyph glyph-name="glyph165" unicode="&#x258e;" 
d="M0 -128v1024h256v-1024h-256z" />
    <glyph glyph-name="glyph166" unicode="&#x259e;" 
d="M512 384v512h256v-512h-256v-512h-512v512h512z" />
    <glyph glyph-name="glyph167" unicode="&#x258a;" 
d="M0 -128v1024h768v-1024h-768z" />
    <glyph glyph-name="glyph168" unicode="&#x2595;" 
 />
    <glyph glyph-name="glyph169" unicode="&#x2589;" 
d="M256 -128v1024h512v-1024h-512z" />
    <glyph glyph-name="glyph170" unicode="&#x25a8;" 
d="M384 832q0 48 8 56t56 8t56 -8t8 -56t-8 -56t-56 -8t-56 -8t-8 -56t-8 -56t-56 -8t-56 -8t-8 -56t-8 -56t-56 -8t-56 -8t-8 -56t-8 -56t-56 -8t-56 8t-8 56t8 56t56 8t56 8t8 56t8 56t56 8t56 8t8 56t8 56t56 8t56 8t8 56zM640 576q0 48 8 56t56 8t56 -8t8 -56t-8 -56
t-56 -8t-56 -8t-8 -56t-8 -56t-56 -8t-56 -8t-8 -56t-8 -56t-56 -8t-56 -8t-8 -56t-8 -56t-56 -8t-56 -8t-8 -56t-8 -56t-56 -8t-56 -8t-8 -56t-8 -56t-56 -8t-56 8t-8 56t8 56t56 8t56 8t8 56t8 56t56 8t56 8t8 56t8 56t56 8t56 8t8 56t8 56t56 8t56 8t8 56t8 56t56 8t56 8
t8 56zM640 64q0 48 8 56t56 8t56 -8t8 -56t-8 -56t-56 -8t-56 -8t-8 -56t-8 -56t-56 -8t-56 8t-8 56t8 56t56 8t56 8t8 56z" />
    <glyph glyph-name="glyph171" unicode="&#x25a7;" 
d="M0 832q0 48 8 56t56 8t56 -8t8 -56t8 -56t56 -8t56 -8t8 -56t8 -56t56 -8t56 -8t8 -56t8 -56t56 -8t56 -8t8 -56t8 -56t56 -8t56 -8t8 -56t8 -56t56 -8t56 -8t8 -56t-8 -56t-56 -8t-56 8t-8 56t-8 56t-56 8t-56 8t-8 56t-8 56t-56 8t-56 8t-8 56t-8 56t-56 8t-56 8t-8 56
t-8 56t-56 8t-56 8t-8 56t-8 56t-56 8t-56 8t-8 56zM512 832q0 48 8 56t56 8t56 -8t8 -56t8 -56t56 -8t56 -8t8 -56t-8 -56t-56 -8t-56 8t-8 56t-8 56t-56 8t-56 8t-8 56zM0 320q0 48 8 56t56 8t56 -8t8 -56t8 -56t56 -8t56 -8t8 -56t8 -56t56 -8t56 -8t8 -56t8 -56t56 -8
t56 -8t8 -56t-8 -56t-56 -8t-56 8t-8 56t-8 56t-56 8t-56 8t-8 56t-8 56t-56 8t-56 8t-8 56t-8 56t-56 8t-56 8t-8 56z" />
    <glyph glyph-name="glyph172" unicode="&#x25bc;" 
d="M0 832v64h768v-256h-64q-48 0 -56 -8t-8 -56t-8 -56t-56 -8t-56 -8t-8 -56t-8 -56t-56 -8t-56 8t-8 56t-8 56t-56 8t-56 8t-8 56t-8 56t-56 8t-56 8t-8 56t-8 56t-56 8t-56 8t-8 56z" />
    <glyph glyph-name="glyph173" unicode="&#x25b2;" 
d="M384 320q0 48 8 56t56 8t56 -8t8 -56t8 -56t56 -8t56 -8t8 -56t8 -56t56 -8h64v-256h-768v64q0 48 8 56t56 8t56 8t8 56t8 56t56 8t56 8t8 56t8 56t56 8t56 8t8 56z" />
    <glyph glyph-name="glyph174" unicode="&#x25b6;" 
d="M0 0v896h64q48 0 56 -8t8 -56t8 -56t56 -8t56 -8t8 -56t8 -56t56 -8t56 -8t8 -56t8 -56t56 -8t56 -8t8 -56t-8 -56t-56 -8t-56 -8t-8 -56t-8 -56t-56 -8t-56 -8t-8 -56t-8 -56t-56 -8t-56 -8t-8 -56t-8 -56t-56 -8h-64z" />
    <glyph glyph-name="glyph175" unicode="&#x25c0;" 
d="M640 576q0 48 8 56t56 8h64v-384h-64q-48 0 -56 8t-8 56t-8 56t-56 8t-56 8t-8 56t8 56t56 8t56 8t8 56z" />
    <glyph glyph-name="glyph176" unicode="&#x29d7;" 
d="M0 832v64h768v-384h-128v-256h128v-384h-768v64q0 48 8 56t56 8t56 8t8 56t8 56t56 8t56 8t8 56t8 56t56 8h64v256h-64q-48 0 -56 8t-8 56t-8 56t-56 8t-56 8t-8 56t-8 56t-56 8t-56 8t-8 56z" />
    <glyph glyph-name="glyph177" unicode="&#x29d3;" 
d="M0 -128v1024h64q48 0 56 -8t8 -56t8 -56t56 -8t56 -8t8 -56t8 -56t56 -8t56 -8t8 -56v-64h256v64q0 48 8 56t56 8h64v-512h-64q-48 0 -56 8t-8 56v64h-256v-64q0 -48 -8 -56t-56 -8t-56 -8t-8 -56t-8 -56t-56 -8t-56 -8t-8 -56t-8 -56t-56 -8h-64z" />
    <glyph glyph-name="glyph178" unicode="&#x2598;" 
d="M0 384v512h512v-512h-512z" />
    <glyph glyph-name="glyph179" unicode="&#x2597;" 
d="M512 -128v512h256v-512h-256z" />
    <glyph glyph-name="glyph180" unicode="&#x259d;" 
d="M512 384v512h256v-512h-256z" />
    <glyph glyph-name="glyph181" unicode="&#x2596;" 
d="M0 -128v512h512v-512h-512z" />
    <glyph glyph-name="glyph182" unicode="&#x2592;" 
d="M256 640v256h256v-256h256v-256h-256v-256h256v-256h-256v256h-256v-256h-256v256h256v256h-256v256h256zM512 384v256h-256v-256h256z" />
    <glyph glyph-name="glyph183" unicode="&#x394;" 
d="M256 512v256h128v-256h128v-256h128v-256h-640v256h128v256h128zM384 256v256h-128v-256h-64q-48 0 -56 -8t-8 -56v-64h384v64q0 48 -8 56t-56 8h-64z" />
    <glyph glyph-name="glyph184" unicode="&#x1c2;" 
d="M256 640v256h128v-256h64q48 0 56 -8t8 -56t-8 -56t-56 -8t-56 -8t-8 -56t8 -56t56 -8t56 -8t8 -56t-8 -56t-56 -8h-64v-256h-128v256h-64q-48 0 -56 8t-8 56t8 56t56 8t56 8t8 56t-8 56t-56 8t-56 8t-8 56t8 56t56 8h64z" />
    <glyph glyph-name="glyph185" unicode="&#x3c9;" 
d="M128 448q0 48 8 56t56 8t56 -8t8 -56t-8 -56t-56 -8h-64v-256h64q48 0 56 8t8 56t8 56t56 8t56 -8t8 -56t8 -56t56 -8h64v256h-64q-48 0 -56 8t-8 56t8 56t56 8t56 -8t8 -56t8 -56t56 -8h64v-256h-64q-48 0 -56 -8t-8 -56t-8 -56t-56 -8t-56 8t-8 56t-8 56t-56 8t-56 -8
t-8 -56t-8 -56t-56 -8t-56 8t-8 56t-8 56t-56 8h-64v256h64q48 0 56 8t8 56z" />
    <glyph glyph-name="glyph186" unicode="&#x2588;" 
d="M0 -128v1024h768v-1024h-768z" />
    <glyph glyph-name="glyph187" unicode="&#x2584;" 
d="M0 -128v512h768v-512h-768z" />
    <glyph glyph-name="glyph188" unicode="&#x258c;" 
d="M0 -128v1024h512v-1024h-512z" />
    <glyph glyph-name="glyph189" unicode="&#x2590;" 
d="M512 -128v1024h256v-1024h-256z" />
    <glyph glyph-name="glyph190" unicode="&#x2580;" 
d="M0 384v512h768v-512h-768z" />
    <glyph glyph-name="glyph191" unicode="&#x3b1;" 
d="M128 576v64h256v-64q0 -48 8 -56t56 -8t56 8t8 56t8 56t56 8t56 -8t8 -56t-8 -56t-56 -8h-64v-384h64q48 0 56 -8t8 -56t-8 -56t-56 -8t-56 8t-8 56t-8 56t-56 8t-56 -8t-8 -56v-64h-256v64q0 48 -8 56t-56 8h-64v384h64q48 0 56 8t8 56zM384 128v384h-256v-384h256z" />
    <glyph glyph-name="glyph192" unicode="&#x3b2;" 
d="M256 832v64h256v-64q0 -48 8 -56t56 -8h64v-256h-64q-48 0 -56 -8t-8 -56t8 -56t56 -8h64v-256h-64q-48 0 -56 -8t-8 -56v-64h-256v-128h-256v64q0 48 8 56t56 8h64v768h64q48 0 56 8t8 56zM512 512v256h-256v-256h256zM512 128v256h-256v-256h256z" />
    <glyph glyph-name="glyph193" unicode="&#x393;" 
d="M0 0v896h640v-256h-64q-48 0 -56 8t-8 56v64h-384v-768h-128z" />
    <glyph glyph-name="glyph194" unicode="&#x3c0;" 
d="M0 832v64h640v-64q0 -48 -8 -56t-56 -8h-64v-640h64q48 0 56 -8t8 -56v-64h-256v768h-128v-640h-64q-48 0 -56 -8t-8 -56t-8 -56t-56 -8t-56 8t-8 56t8 56t56 8h64v640h-64q-48 0 -56 8t-8 56z" />
    <glyph glyph-name="glyph195" unicode="&#x3a3;" 
d="M0 640v256h640v-256h-64q-48 0 -56 8t-8 56v64h-384v-64q0 -48 8 -56t56 -8t56 -8t8 -56t8 -56t56 -8t56 -8t8 -56t-8 -56t-56 -8t-56 -8t-8 -56t-8 -56t-56 -8t-56 -8t-8 -56v-64h384v64q0 48 8 56t56 8h64v-256h-640v256h64q48 0 56 8t8 56t8 56t56 8t56 8t8 56t-8 56
t-56 8t-56 8t-8 56t-8 56t-56 8h-64z" />
    <glyph glyph-name="glyph196" unicode="&#x3c3;" 
d="M128 576v64h512v-64q0 -48 -8 -56t-56 -8h-64v-384h-64q-48 0 -56 -8t-8 -56v-64h-256v64q0 48 -8 56t-56 8h-64v384h64q48 0 56 8t8 56zM384 128v384h-256v-384h256z" />
    <glyph glyph-name="glyph197" unicode="&#x3bc;" 
d="M128 128v640h128v-512h128v512h128v-512h64q48 0 56 -8t8 -56t-8 -56t-56 -8t-56 8t-8 56t-8 56t-56 8t-56 -8t-8 -56v-64h-256v-256h-128v256h128z" />
    <glyph glyph-name="glyph198" unicode="&#x3c4;" 
d="M128 704q0 48 8 56t56 8t56 -8t8 -56t8 -56t56 -8t56 8t8 56t8 56t56 8t56 -8t8 -56t-8 -56t-56 -8h-64v-640h-128v640h-64q-48 0 -56 -8t-8 -56t-8 -56t-56 -8t-56 8t-8 56t8 56t56 8t56 8t8 56z" />
    <glyph glyph-name="glyph199" unicode="&#x3a6;" 
d="M0 768v128h640v-128h-256v-64q0 -48 8 -56t56 -8t56 -8t8 -56t8 -56t56 -8h64v-256h-64q-48 0 -56 -8t-8 -56t-8 -56t-56 -8t-56 -8t-8 -56v-64h256v-128h-640v128h256v64q0 48 -8 56t-56 8t-56 8t-8 56t-8 56t-56 8h-64v256h64q48 0 56 8t8 56t8 56t56 8t56 8t8 56v64
h-256zM256 256v256h-128v-256h128zM512 256v256h-128v-256h128z" />
    <glyph glyph-name="glyph200" unicode="&#x3b8;" 
d="M256 832q0 48 8 56t56 8t56 -8t8 -56t8 -56t56 -8t56 -8t8 -56t8 -56t56 -8h64v-384h-64q-48 0 -56 -8t-8 -56t-8 -56t-56 -8t-56 -8t-8 -56t-8 -56t-56 -8t-56 8t-8 56t-8 56t-56 8t-56 8t-8 56t-8 56t-56 8h-64v384h64q48 0 56 8t8 56t8 56t56 8t56 8t8 56zM384 704
q0 48 -8 56t-56 8t-56 -8t-8 -56t-8 -56t-56 -8t-56 -8t-8 -56v-64h384v64q0 48 -8 56t-56 8t-56 8t-8 56zM512 320v64h-384v-64q0 -48 8 -56t56 -8t56 -8t8 -56t8 -56t56 -8t56 8t8 56t8 56t56 8t56 8t8 56z" />
    <glyph glyph-name="glyph201" unicode="&#x3a9;" 
d="M128 832v64h384v-64q0 -48 8 -56t56 -8h64v-384h-128v-256h64q48 0 56 -8t8 -56v-64h-256v384h128v384h-384v-384h128v-384h-256v64q0 48 8 56t56 8h64v256h-128v384h64q48 0 56 8t8 56z" />
    <glyph glyph-name="glyph202" unicode="&#x3b4;" 
d="M256 832v64h256v-128h-256v-256h64q48 0 56 -8t8 -56t8 -56t56 -8h64v-384h-64q-48 0 -56 -8t-8 -56t-8 -56t-56 -8t-56 8t-8 56t-8 56t-56 8h-64v384h64q48 0 56 8t8 56t-8 56t-56 8h-64v256h64q48 0 56 8t8 56zM384 0v384h-128v-384h128z" />
    <glyph glyph-name="glyph203" unicode="&#x221e;" 
d="M128 448q0 48 8 56t56 8t56 -8t8 -56t8 -56t56 -8t56 8t8 56t8 56t56 8t56 -8t8 -56t8 -56t56 -8h64v-256h-64q-48 0 -56 -8t-8 -56t-8 -56t-56 -8t-56 8t-8 56t-8 56t-56 8t-56 -8t-8 -56t-8 -56t-56 -8t-56 8t-8 56t-8 56t-56 8h-64v256h64q48 0 56 8t8 56zM256 128
v256h-128v-256h128zM512 128v256h-128v-256h128z" />
    <glyph glyph-name="glyph204" unicode="&#x3c6;" 
d="M512 832q0 48 8 56t56 8t56 -8t8 -56t-8 -56t-56 -8t-56 -8t-8 -56t8 -56t56 -8h64v-384h-64q-48 0 -56 -8t-8 -56v-64h-384v-64q0 -48 -8 -56t-56 -8t-56 8t-8 56t8 56t56 8t56 8t8 56t-8 56t-56 8h-64v384h64q48 0 56 8t8 56v64h384v64zM256 256v384h-128v-384h128z
M512 256v384h-128v-384h128z" />
    <glyph glyph-name="glyph205" unicode="&#x2208;" 
d="M256 832v64h384v-128h-384v-64q0 -48 -8 -56t-56 -8t-56 -8t-8 -56v-64h512v-128h-512v-64q0 -48 8 -56t56 -8t56 -8t8 -56v-64h384v-128h-384v64q0 48 -8 56t-56 8t-56 8t-8 56t-8 56t-56 8h-64v384h64q48 0 56 8t8 56t8 56t56 8t56 8t8 56z" />
    <glyph glyph-name="glyph206" unicode="&#x2229;" 
d="M128 832v64h384v-64q0 -48 8 -56t56 -8h64v-768h-128v768h-384v-768h-128v768h64q48 0 56 8t8 56z" />
    <glyph glyph-name="glyph207" unicode="&#x2261;" 
d="M0 640v128h640v-128h-640zM0 384v128h640v-128h-640zM0 128v128h640v-128h-640z" />
    <glyph glyph-name="glyph209" unicode="&#x2265;" 
d="M0 768v128h256v-128h256v-64q0 -48 8 -56t56 -8t56 -8t8 -56t-8 -56t-56 -8t-56 -8t-8 -56v-64h-256v-128h-256v128h256v128h256v128h-256v128h-256zM0 0v128h640v-128h-640z" />
    <glyph glyph-name="glyph210" unicode="&#x2264;" 
d="M384 768v128h256v-128h-256v-128h-256v-128h256v-128h256v-128h-256v128h-256v64q0 48 -8 56t-56 8t-56 8t-8 56t8 56t56 8t56 8t8 56v64h256zM0 0v128h640v-128h-640z" />
    <glyph glyph-name="glyph211" unicode="&#x2320;" 
d="M384 832q0 48 8 56t56 8t56 -8t8 -56t8 -56t56 -8t56 -8t8 -56t-8 -56t-56 -8t-56 8t-8 56t-8 56t-56 8h-64v-896h-128v896h64q48 0 56 8t8 56z" />
    <glyph glyph-name="glyph212" unicode="&#x2321;" 
d="M256 0v896h128v-896h-64q-48 0 -56 -8t-8 -56t-8 -56t-56 -8t-56 8t-8 56t-8 56t-56 8t-56 8t-8 56t8 56t56 8t56 -8t8 -56t8 -56t56 -8h64z" />
    <glyph glyph-name="glyph214" unicode="&#x2248;" 
d="M128 704q0 48 8 56t56 8t56 -8t8 -56t8 -56t56 -8t56 8t8 56t8 56t56 8t56 -8t8 -56t-8 -56t-56 -8t-56 -8t-8 -56t-8 -56t-56 -8t-56 8t-8 56t-8 56t-56 8t-56 -8t-8 -56t-8 -56t-56 -8t-56 8t-8 56t8 56t56 8t56 8t8 56zM128 320q0 48 8 56t56 8t56 -8t8 -56t8 -56
t56 -8t56 8t8 56t8 56t56 8t56 -8t8 -56t-8 -56t-56 -8t-56 -8t-8 -56t-8 -56t-56 -8t-56 8t-8 56t-8 56t-56 8t-56 -8t-8 -56t-8 -56t-56 -8t-56 8t-8 56t8 56t56 8t56 8t8 56z" />
    <glyph glyph-name="glyph216" unicode="&#x2219;" 
d="M256 704v64h256v-64q0 -48 8 -56t56 -8h64v-256h-64q-48 0 -56 -8t-8 -56v-64h-256v64q0 48 -8 56t-56 8h-64v256h64q48 0 56 8t8 56z" />
    <glyph glyph-name="glyph217" unicode="&#x2010;" 
d="M256 256v128h256v-128h-256z" />
    <glyph glyph-name="glyph218" unicode="&#x221a;" 
d="M256 256v640h512v-128h-384v-768h-64q-48 0 -56 8t-8 56t-8 56t-56 8t-56 8t-8 56t-8 56t-56 8t-56 8t-8 56t8 56t56 8t56 -8t8 -56t8 -56t56 -8h64z" />
    <glyph glyph-name="glyph219" unicode="&#x207f;" 
d="M0 832q0 48 8 56t56 8t56 -8t8 -56t8 -56t56 -8t56 8t8 56t8 56t56 8t56 -8t8 -56t8 -56t56 -8h64v-384h-128v384h-128v-384h-128v384h-64q-48 0 -56 8t-8 56z" />
    <glyph glyph-name="glyph221" unicode="&#x275a;" 
d="M256 0v768h384v-768h-384z" />
    <glyph glyph-name="glyph222" unicode="&#x25a0;" 
d="M0 -128v1024h768v-1024h-768z" />
    <glyph glyph-name="glyph223" unicode="&#x263a;" 
d="M256 832v64h512v-128h-512v-64q0 -48 8 -56t56 -8t56 -8t8 -56t-8 -56t-56 -8t-56 8t-8 56t-8 56t-56 8h-64v-512h64q48 0 56 -8t8 -56v-64h512v-128h-512v64q0 48 -8 56t-56 8t-56 8t-8 56t-8 56t-56 8h-64v512h64q48 0 56 8t8 56t8 56t56 8t56 8t8 56zM640 576
q0 48 8 56t56 8t56 -8t8 -56t-8 -56t-56 -8t-56 8t-8 56zM256 320q0 48 8 56t56 8t56 -8t8 -56v-64h256v64q0 48 8 56t56 8t56 -8t8 -56t-8 -56t-56 -8t-56 -8t-8 -56v-64h-256v64q0 48 -8 56t-56 8t-56 8t-8 56z" />
    <glyph glyph-name="glyph224" unicode="&#x263b;" 
d="M256 832v64h512v-256h-64q-48 0 -56 -8t-8 -56t8 -56t56 -8h64v-256h-64q-48 0 -56 -8t-8 -56t8 -56t56 -8h64v-256h-512v64q0 48 -8 56t-56 8t-56 8t-8 56t-8 56t-56 8h-64v512h64q48 0 56 8t8 56t8 56t56 8t56 8t8 56zM384 576q0 48 -8 56t-56 8t-56 -8t-8 -56t8 -56
t56 -8t56 8t8 56zM384 192q0 48 -8 56t-56 8t-56 -8t-8 -56t8 -56t56 -8t56 8t8 56zM640 0v128h-256v-128h256z" />
    <glyph glyph-name="glyph225" unicode="&#x2665;" 
d="M128 832v64h256v-64q0 -48 8 -56t56 -8t56 8t8 56v64h256v-640h-64q-48 0 -56 -8t-8 -56t-8 -56t-56 -8t-56 -8t-8 -56t-8 -56t-56 -8t-56 8t-8 56t-8 56t-56 8t-56 8t-8 56t-8 56t-56 8t-56 8t-8 56t-8 56t-56 8h-64v384h64q48 0 56 8t8 56z" />
    <glyph glyph-name="glyph226" unicode="&#x2666;" 
d="M384 832q0 48 8 56t56 8t56 -8t8 -56t8 -56t56 -8t56 -8t8 -56t8 -56t56 -8h64v-384h-64q-48 0 -56 -8t-8 -56t-8 -56t-56 -8t-56 -8t-8 -56t-8 -56t-56 -8t-56 8t-8 56t-8 56t-56 8t-56 8t-8 56t-8 56t-56 8t-56 8t-8 56t-8 56t-56 8t-56 8t-8 56t8 56t56 8t56 8t8 56
t8 56t56 8t56 8t8 56t8 56t56 8t56 8t8 56z" />
    <glyph glyph-name="glyph227" unicode="&#x2663;" 
d="M384 832q0 48 8 56t56 8t56 -8t8 -56t8 -56t56 -8t56 -8t8 -56t8 -56t56 -8h64v-384h-64q-48 0 -56 8t-8 56t-8 56t-56 8h-64v-256h64q48 0 56 -8t8 -56v-64h-384v64q0 48 8 56t56 8h64v256h-64q-48 0 -56 -8t-8 -56t-8 -56t-56 -8t-56 8t-8 56t-8 56t-56 8t-56 8t-8 56
t8 56t56 8t56 8t8 56t8 56t56 8t56 8t8 56t8 56t56 8t56 8t8 56zM384 576q0 48 -8 56t-56 8t-56 -8t-8 -56t8 -56t56 -8t56 8t8 56zM640 576q0 48 -8 56t-56 8t-56 -8t-8 -56t8 -56t56 -8t56 8t8 56z" />
    <glyph glyph-name="glyph228" unicode="&#x2660;" 
d="M384 832q0 48 8 56t56 8t56 -8t8 -56t8 -56t56 -8t56 -8t8 -56t8 -56t56 -8h64v-384h-256v-64q0 -48 8 -56t56 -8t56 -8t8 -56v-64h-384v64q0 48 8 56t56 8t56 8t8 56v64h-384v256h64q48 0 56 8t8 56t8 56t56 8t56 8t8 56t8 56t56 8t56 8t8 56z" />
    <glyph glyph-name="glyph230" unicode="&#x25d8;" 
d="M0 -128v1024h768v-1024h-768zM640 256v256h-256v-256h256z" />
    <glyph glyph-name="glyph231" unicode="&#x25cb;" 
d="M256 832v64h384v-64q0 -48 8 -56t56 -8t56 -8t8 -56t-8 -56t-56 -8t-56 8t-8 56v64h-384v-64q0 -48 -8 -56t-56 -8h-64v-384h64q48 0 56 -8t8 -56v-64h384v64q0 48 8 56t56 8t56 -8t8 -56t-8 -56t-56 -8t-56 -8t-8 -56v-64h-384v64q0 48 -8 56t-56 8t-56 8t-8 56t-8 56
t-56 8h-64v384h64q48 0 56 8t8 56t8 56t56 8t56 8t8 56z" />
    <glyph glyph-name="glyph232" unicode="&#x25d9;" 
d="M0 640v256h256v-128h384v64q0 48 8 56t56 8t56 -8t8 -56t-8 -56t-56 -8t-56 -8t-8 -56t8 -56t56 -8h64v-384h-64q-48 0 -56 -8t-8 -56t8 -56t56 -8h64v-256h-768v384h128v384h-128zM256 704q0 48 -8 56t-56 8t-56 -8t-8 -56t8 -56t56 -8t56 8t8 56zM256 192q0 48 -8 56
t-56 8t-56 -8t-8 -56t8 -56t56 -8t56 8t8 56zM640 0v128h-384v-128h384z" />
    <glyph glyph-name="glyph233" unicode="&#x2642;" 
d="M512 768v128h256v-128h-256zM640 576q0 48 8 56t56 8t56 -8t8 -56t-8 -56t-56 -8h-64v-512h-64q-48 0 -56 -8t-8 -56v-64h-384v64q0 48 -8 56t-56 8h-64v384h64q48 0 56 8t8 56v64h512v64zM512 0v384h-384v-384h384z" />
    <glyph glyph-name="glyph234" unicode="&#x2640;" 
d="M256 832v64h384v-64q0 -48 8 -56t56 -8h64v-384h-64q-48 0 -56 -8t-8 -56t-8 -56t-56 -8t-56 -8t-8 -56v-64h256v-128h-256v-64q0 -48 -8 -56t-56 -8t-56 8t-8 56v64h-256v128h256v64q0 48 -8 56t-56 8t-56 8t-8 56t-8 56t-56 8h-64v384h64q48 0 56 8t8 56zM640 384v384
h-384v-384h384z" />
    <glyph glyph-name="glyph235" unicode="&#x266a;" 
d="M256 128v768h256v-64q0 -48 8 -56t56 -8t56 -8t8 -56t8 -56t56 -8h64v-256h-64q-48 0 -56 -8t-8 -56t-8 -56t-56 -8t-56 8t-8 56t8 56t56 8h64v256h-64q-48 0 -56 8t-8 56t-8 56t-56 8h-64v-768h-64q-48 0 -56 -8t-8 -56v-64h-256v256h256z" />
    <glyph glyph-name="glyph236" unicode="&#x266c;" 
d="M256 256v640h512v-896h-64q-48 0 -56 -8t-8 -56v-64h-256v256h-64q-48 0 -56 -8t-8 -56v-64h-256v256h256zM640 640v128h-256v-128h256zM640 128v384h-256v-384h256z" />
    <glyph glyph-name="glyph237" unicode="&#x263c;" 
d="M384 640v256h128v-256h64q48 0 56 8t8 56t8 56t56 8t56 -8t8 -56t-8 -56t-56 -8t-56 -8t-8 -56t8 -56t56 -8t56 -8t8 -56t-8 -56t-56 -8t-56 -8t-8 -56t8 -56t56 -8t56 -8t8 -56t-8 -56t-56 -8t-56 8t-8 56t-8 56t-56 8h-64v-256h-128v256h-64q-48 0 -56 -8t-8 -56
t-8 -56t-56 -8t-56 8t-8 56t8 56t56 8t56 8t8 56v64h-256v128h256v64q0 48 -8 56t-56 8t-56 8t-8 56t8 56t56 8t56 -8t8 -56t8 -56t56 -8h64zM512 448q0 48 -8 56t-56 8t-56 -8t-8 -56t8 -56t56 -8t56 8t8 56z" />
    <glyph glyph-name="glyph238" unicode="&#x2542;" 
d="M384 512v384h128v-384h256v-128h-256v-512h-128v512h-256v128h256z" />
    <glyph glyph-name="glyph239" unicode="&#x253b;" 
d="M384 512v384h128v-384h256v-128h-768v128h384z" />
    <glyph glyph-name="glyph240" unicode="&#x2533;" 
d="M0 384v128h768v-128h-256v-512h-128v512h-384z" />
    <glyph glyph-name="glyph241" unicode="&#x252b;" 
d="M384 512v384h128v-1024h-128v512h-384v128h384z" />
    <glyph glyph-name="glyph242" unicode="&#x2523;" 
d="M384 -128v1024h128v-384h256v-128h-256v-512h-128z" />
    <glyph glyph-name="glyph243" unicode="&#x254b;" 
d="M384 512v384h128v-384h256v-128h-256v-512h-128v512h-384v128h384z" />
    <glyph glyph-name="glyph244" unicode="&#x2503;" 
d="M384 -128v1024h128v-1024h-128z" />
    <glyph glyph-name="glyph245" unicode="&#x2501;" 
d="M0 384v128h768v-128h-768z" />
    <glyph glyph-name="glyph246" unicode="&#x250f;" 
d="M384 -128v640h384v-128h-256v-512h-128z" />
    <glyph glyph-name="glyph247" unicode="&#x2513;" 
d="M0 384v128h512v-640h-128v512h-384z" />
    <glyph glyph-name="glyph248" unicode="&#x2517;" 
d="M384 384v512h128v-384h256v-128h-384z" />
    <glyph glyph-name="glyph249" unicode="&#x251b;" 
d="M384 512v384h128v-512h-512v128h384z" />
    <glyph glyph-name="glyph250" unicode="&#x2573;" 
d="M0 832q0 48 8 56t56 8t56 -8t8 -56t8 -56t56 -8t56 -8t8 -56t8 -56t56 -8t56 -8t8 -56v-64h256v64q0 48 8 56t56 8t56 -8t8 -56t-8 -56t-56 -8h-64v-256h64q48 0 56 -8t8 -56t-8 -56t-56 -8t-56 8t-8 56v64h-256v-64q0 -48 -8 -56t-56 -8t-56 -8t-8 -56t-8 -56t-56 -8
t-56 -8t-8 -56t-8 -56t-56 -8t-56 8t-8 56t8 56t56 8t56 8t8 56t8 56t56 8t56 8t8 56t8 56t56 8h64v256h-64q-48 0 -56 8t-8 56t-8 56t-56 8t-56 8t-8 56t-8 56t-56 8t-56 8t-8 56z" />
    <glyph glyph-name="glyph251" unicode="&#x2571;" 
d="M640 576q0 48 8 56t56 8t56 -8t8 -56t-8 -56t-56 -8t-56 -8t-8 -56t-8 -56t-56 -8t-56 -8t-8 -56t-8 -56t-56 -8t-56 -8t-8 -56t-8 -56t-56 -8t-56 -8t-8 -56t-8 -56t-56 -8t-56 -8t-8 -56t-8 -56t-56 -8t-56 8t-8 56t8 56t56 8t56 8t8 56t8 56t56 8t56 8t8 56t8 56t56 8
t56 8t8 56t8 56t56 8t56 8t8 56t8 56t56 8t56 8t8 56z" />
    <glyph glyph-name="glyph252" unicode="&#x2572;" 
d="M0 832q0 48 8 56t56 8t56 -8t8 -56t8 -56t56 -8t56 -8t8 -56t8 -56t56 -8t56 -8t8 -56t8 -56t56 -8t56 -8t8 -56t8 -56t56 -8t56 -8t8 -56t8 -56t56 -8t56 -8t8 -56t-8 -56t-56 -8t-56 8t-8 56t-8 56t-56 8t-56 8t-8 56t-8 56t-56 8t-56 8t-8 56t-8 56t-56 8t-56 8t-8 56
t-8 56t-56 8t-56 8t-8 56t-8 56t-56 8t-56 8t-8 56z" />
    <glyph glyph-name="glyph253" unicode="&#x253f;" 
d="M384 512v256h128v-256h256v-128h-256v-256h-128v256h-384v128h384z" />
  </font>
</defs>
</svg>
